<?xml version="1.0" standalone="no"?>
<!DOCTYPE svg PUBLIC "-//W3C//DTD SVG 1.1//EN" "http://www.w3.org/Graphics/SVG/1.1/DTD/svg11.dtd" >
<svg xmlns="http://www.w3.org/2000/svg" xmlns:xlink="http://www.w3.org/1999/xlink" version="1.1">
<metadata></metadata>
<defs>
<font id="holidayfreeregular" horiz-adv-x="0" >
<font-face units-per-em="1000" ascent="800" descent="-200" />
<missing-glyph horiz-adv-x="377" />
<glyph />
<glyph />
<glyph horiz-adv-x="333" />
<glyph unicode="&#xa;" />
<glyph unicode="&#xd;" />
<glyph unicode=" "  horiz-adv-x="377" />
<glyph unicode="&#x09;" horiz-adv-x="377" />
<glyph unicode="&#xa0;" horiz-adv-x="377" />
<glyph unicode="!" horiz-adv-x="575" d="M438 830q16 13 43 -2.5t38 -38.5t-2 -39q-15 -12 -28.5 -32t-20 -33t-19.5 -43t-16 -37q-34 -74 -65 -149q-66 -155 -125 -323q-10 -27 -47 -4q-34 21 -42 50q-2 11 0 19q63 177 133 340q36 84 74 167q2 5 10 22t11 23.5t10.5 20.5t13.5 22.5t14.5 18.5t17.5 18zM103 81 q15 18 38.5 9.5t41.5 -33t8 -41.5q-45 -74 -50 -154q-2 -32 -37 -18q-31 13 -48 43q-7 12 -6 21q6 96 53 173z" />
<glyph unicode="&#x26;" horiz-adv-x="555" d="M418 145q17 13 43.5 -2.5t37.5 -38.5t-2 -38q-17 -14 -50 -43.5t-47 -41.5q5 -13 9 -25q6 -17 -4 -25.5t-27 -5.5q-16 3 -31 16q-105 -69 -203 -19q-46 24 -69.5 61.5t-24.5 80.5t11.5 86t35.5 85q40 70 144 193q2 38 7 72q3 18 7 38t11 48t16 53t20.5 51t26.5 43 t32.5 27.5t39 8t45.5 -20.5q25 -18 38 -42t15.5 -46.5t-7 -52t-19.5 -50.5t-30.5 -51.5t-32 -45.5t-32.5 -41q-2 -3 -3 -4q-17 -21 -44 -53q-4 -123 34 -266q34 33 53 49zM166 -6q40 -7 85 13q24 12 50 32q-38 119 -52 225q-78 -100 -104 -186q-5 -15 -7 -26t-2 -25 t7.5 -22.5t22.5 -10.5z" />
<glyph unicode="," horiz-adv-x="250" d="M117 135q24 6 46 -13t30 -43q16 -44 -1.5 -82.5t-55.5 -78.5q-9 -9 -23 -7t-26.5 12t-23.5 23.5t-12.5 27t6.5 23.5q28 29 37 44q-18 16 -25.5 35t3.5 33q19 20 45 26z" />
<glyph unicode="." horiz-adv-x="223" d="M173 66q1 -8 -4 -13q-2 -5 -8 -8q-15 -10 -26 -25q-6 -9 -27 -4q-16 3 -35 21q-16 16 -21 35q-5 15 4 27q13 19 39 34q10 3 20 -1q8 -3 11 -4q17 -8 33 -28q14 -18 14 -34z" />
<glyph unicode="0" horiz-adv-x="466" d="M332 827q17 -8 31.5 -21.5t17.5 -26.5q66 -259 11 -512q-30 -140 -81 -229q-13 -23 -24.5 -40t-29.5 -35.5t-39.5 -26.5t-44.5 -3q-48 11 -78.5 56t-39.5 99q-10 56 -1.5 113.5t28.5 130.5q70 252 201 491q14 25 49 4zM314 385q21 134 6 273q-66 -133 -112 -268 q-39 -116 -56 -196q-13 -60 -11 -104q2 -48 7 -55q8 -11 27 5q31 27 56 69t41 93t25 92t17 91z" />
<glyph unicode="1" horiz-adv-x="461" d="M400 798q7 -17 9 -35t2 -30t-6 -33t-8.5 -29t-13 -33t-12.5 -31q-42 -106 -79 -215q-74 -216 -127 -449q-6 -26 -41 -5q-34 19 -46 50q-4 11 -2 20q49 209 113 404q32 100 69 197q19 49 39 98v1q-29 -18 -54 -39q-25 -20 -37 -30t-34 -34t-30 -42q12 -28 -10 -36 q-1 0 -2.5 -0.5l-1.5 -0.5q-19 -7 -41 9.5t-31 35.5q-5 12 -5.5 24.5t2 23t10.5 23.5t14.5 22t18.5 21.5t18.5 19t18.5 17.5q5 4 7 6q80 74 188 115q18 7 41 -10t31 -35z" />
<glyph unicode="2" horiz-adv-x="825" d="M739 68q16 -13 28.5 -31.5t4.5 -32.5q-5 -10 -15.5 -12t-20.5 1.5t-19 10.5q-101 83 -240 88q-77 -77 -167 -128t-184 -60q-32 -3 -62 46q-18 33 -12.5 61t31 52.5t59 44t72 34.5t71 24t55.5 12q33 5 69 5q109 113 166 257q32 78 45 159q6 32 8.5 49t0.5 49.5t-15 45.5 q-10 11 -27.5 12t-35.5 -4.5t-40.5 -15.5t-35.5 -18t-27 -17q-73 -47 -131 -124q-15 -13 -38 -2t-38.5 37.5t-3.5 43.5q25 33 56.5 64t72 60.5t82 46t86 18.5t83.5 -21q141 -80 83 -333q-41 -176 -157 -323q110 -29 196 -99z" />
<glyph unicode="3" horiz-adv-x="711" d="M539 843q37 -6 65.5 -29.5t41 -55.5t15.5 -69t-10 -70q-20 -59 -60 -109t-99 -105q100 -65 118 -150q8 -37 -1 -72.5t-33.5 -66t-49.5 -53t-59 -46.5q-29 -22 -53.5 -37.5t-59 -32t-64 -24t-64 -6t-64.5 15.5q-59 28 -94 90t-5 116q15 18 38.5 10t41.5 -33t9 -41 q-31 -54 21 -62.5t90 12.5q79 31 168 103q26 22 43.5 39.5t33.5 46t16 55.5q-1 9 -3 17.5t-7 16t-9.5 13t-13 12t-13.5 10.5t-16 10t-15.5 8t-17 7.5t-14.5 7.5q-20 9 -39 36t-2 43q90 80 129 128q30 38 47 75q40 84 22 98q-2 4 -11.5 2.5t-16.5 -3.5t-18.5 -7.5t-18.5 -9 t-16 -8.5t-11 -6q-40 -21 -77 -49q-12 -9 -31 -24.5t-45.5 -41t-35.5 -40.5q11 -11 17 -23q8 -12 5 -29.5t-21 -15.5q-33 4 -59.5 26.5t-33.5 55.5q-4 17 -0.5 32.5t17.5 33.5t20 25t25 26q54 54 125 96q31 18 49 27.5t49 18.5t55 6z" />
<glyph unicode="4" horiz-adv-x="737" d="M596 786q14 18 37 10.5t41.5 -32.5t9.5 -42q-185 -365 -183 -769q1 -32 -34 -18q-32 14 -50 43q-6 12 -6 21q-1 165 29 329q-79 21 -160 3t-146 -70q-13 -10 -31 -4.5t-31 20t-20 32t3 31.5q140 220 193 483q6 26 40.5 6t46.5 -51q3 -11 2 -19q-36 -176 -115 -339 q117 25 234 -18q47 201 140 384z" />
<glyph unicode="5" horiz-adv-x="699" d="M253 552q96 9 161 -53q47 -44 65.5 -107t10.5 -129q-18 -139 -121 -243t-241 -126q-27 -5 -59 33q-29 35 -16 50q4 4 10 5q102 17 185 80t124 158q47 108 22 191q-6 19 -17 31t-22 17.5t-30 5t-31 -2t-34 -8.5t-31 -10.5t-30 -12.5q-24 -10 -54.5 21t-21.5 56 q51 144 123 279q12 22 43 8h3q144 -6 279 15q28 5 59 -33q29 -35 16 -50q-4 -4 -10 -5q-152 -24 -298 -18q-6 0 -12 3q-40 -77 -73 -155z" />
<glyph unicode="6" horiz-adv-x="630" d="M494 838q14 15 40 1t40 -39.5t-1 -40.5q-135 -138 -232.5 -261t-154.5 -255q-8 -18 -15 -36q11 4 38 15t40 15t34.5 7.5t40.5 -2t39 -19.5q47 -32 53 -79t-24 -93q-28 -47 -68.5 -84t-85.5 -47q-43 -9 -84.5 14.5t-68.5 64.5q-98 146 75 426q125 201 334 413zM228 116 q-16 -6 -37.5 9t-33.5 36q-11 -41 -13 -77q-4 -63 11 -73q21 -13 70 22q29 21 54 50q11 13 20 26q3 4 10.5 21t12.5 22q-3 -1 -12 -3t-12 -3q-8 -3 -32 -14.5t-38 -15.5z" />
<glyph unicode="7" horiz-adv-x="687" d="M396 472q25 -19 34 -43t-11 -31q-52 -12 -106 -19q-186 -223 -171 -432q2 -18 -15 -21t-29 5q-18 8 -31.5 25.5t-15.5 36.5q-14 186 116 378h-2q-26 0 -53 37q-26 37 -8 50q5 4 15 4q61 -1 122 5q42 50 144 155q60 61 89 93l16.5 16.5t17.5 18.5q-143 -13 -255 -24 q-26 -2 -52 33q-27 35 -11 52q6 5 17 6q180 18 361 33q23 2 44.5 -21.5t23.5 -47.5q2 -21 -5 -42.5t-24 -44t-29.5 -37t-37 -38t-30.5 -30.5q-18 -19 -56 -58t-58 -59z" />
<glyph unicode="8" horiz-adv-x="500" d="M438 769q43 -193 -65 -353q17 -29 2 -44q-5 -6 -13 -14q3 -11 23 -77q14 -49 20.5 -94t4 -95t-25.5 -92t-66 -67q-40 -24 -88 -26.5t-89 13.5t-67.5 53.5t-23.5 89.5q1 13 4 27t6 24.5t11 26.5t11 23.5t14 25.5t14 22t16 24t14 22q54 83 126 161q-13 47 -15 85 q-6 85 21.5 167t82.5 150q16 20 47 -5.5t36 -46.5zM320 152q5 59 -17 141q-116 -132 -153 -241q-13 -40 -9 -50q-1 -1 -2 -2.5t-1 -2.5q11 -4 23 -3q49 -1 91 26q60 40 68 132z" />
<glyph unicode="9" horiz-adv-x="601" d="M486 821q22 -3 45.5 -33t18.5 -48q-77 -281 -180 -542q-7 -18 -22.5 -60.5t-25.5 -66.5t-25.5 -58t-31.5 -60q-19 -31 -46 -42t-55.5 -3t-55.5 31q-7 7 -13.5 18t-9.5 23.5t6 20.5q16 16 49 -7q3 2 14 3q12 6 19 17q9 10 25 46q19 43 41 96q44 106 84 213q21 58 43 124 q-13 -16 -19 -22q-4 -5 -28 -32t-34 -37.5t-33 -32t-39.5 -30t-40 -16t-45.5 -6.5q-22 2 -40.5 19t-26.5 39q-41 117 96 305q142 196 273 177q36 -5 57 -36zM292 578q74 85 143 187q-52 -8 -98 -49.5t-92 -101.5q-83 -108 -100 -185q16 10 48 42q50 50 99 107z" />
<glyph unicode="A" horiz-adv-x="1763" d="M1712 196q3 -17 -5.5 -27t-25.5 -4q-115 36 -288 36q-32 -76 -56 -142q-31 -85 -52 -163q-17 -60 -20 -80q0 -3 -0.5 -14.5t-2.5 -16.5q0 -3 1 -8q30 -20 34 -45q4 -17 -5 -27.5t-26 -4.5q-124 45 -79 225q32 127 90 273q-200 -6 -391 -37q-46 -7 -93 -16 q-220 -292 -376 -625q-13 -27 -50 -4q-33 21 -40 50q-2 10 2 18q129 276 302 526q-257 -62 -503 -165q-24 -10 -55 23q-31 32 -21 54q3 8 12 11q319 134 655 199q71 93 145 180q161 186 345 347q79 69 132 112.5t132.5 95t152.5 80.5q18 8 41 -9t31 -35q12 -29 13.5 -60 t-10 -67t-20.5 -59t-30 -64.5t-27 -54.5q-27 -60 -79.5 -169.5t-68.5 -143.5q-23 -50 -44 -96q127 -6 224 -37q19 -6 36 -22t20 -34zM1316 291q36 83 162 348q47 98 77 165q21 49 39 92q1 2 10 22q-56 -31 -118.5 -76.5t-104 -80.5t-105.5 -92q-178 -157 -333 -337 q-28 -33 -61 -73q193 27 379 31q28 1 55 1z" />
<glyph unicode="&#xc4;" horiz-adv-x="1763" d="M1712 196q3 -17 -5.5 -27t-25.5 -4q-115 36 -288 36q-32 -76 -56 -142q-31 -85 -52 -163q-17 -60 -20 -80q0 -3 -0.5 -14.5t-2.5 -16.5q0 -3 1 -8q30 -20 34 -45q4 -17 -5 -27.5t-26 -4.5q-124 45 -79 225q32 127 90 273q-200 -6 -391 -37q-46 -7 -93 -16 q-220 -292 -376 -625q-13 -27 -50 -4q-33 21 -40 50q-2 10 2 18q129 276 302 526q-257 -62 -503 -165q-24 -10 -55 23q-31 32 -21 54q3 8 12 11q319 134 655 199q71 93 145 180q161 186 345 347q79 69 132 112.5t132.5 95t152.5 80.5q18 8 41 -9t31 -35q12 -29 13.5 -60 t-10 -67t-20.5 -59t-30 -64.5t-27 -54.5q-27 -60 -79.5 -169.5t-68.5 -143.5q-23 -50 -44 -96q127 -6 224 -37q19 -6 36 -22t20 -34zM1316 291q36 83 162 348q47 98 77 165q21 49 39 92q1 2 10 22q-56 -31 -118.5 -76.5t-104 -80.5t-105.5 -92q-178 -157 -333 -337 q-28 -33 -61 -73q193 27 379 31q28 1 55 1z" />
<glyph unicode="&#xc3;" horiz-adv-x="1763" d="M1712 196q3 -17 -5.5 -27t-25.5 -4q-115 36 -288 36q-32 -76 -56 -142q-31 -85 -52 -163q-17 -60 -20 -80q0 -3 -0.5 -14.5t-2.5 -16.5q0 -3 1 -8q30 -20 34 -45q4 -17 -5 -27.5t-26 -4.5q-124 45 -79 225q32 127 90 273q-200 -6 -391 -37q-46 -7 -93 -16 q-220 -292 -376 -625q-13 -27 -50 -4q-33 21 -40 50q-2 10 2 18q129 276 302 526q-257 -62 -503 -165q-24 -10 -55 23q-31 32 -21 54q3 8 12 11q319 134 655 199q71 93 145 180q161 186 345 347q79 69 132 112.5t132.5 95t152.5 80.5q18 8 41 -9t31 -35q12 -29 13.5 -60 t-10 -67t-20.5 -59t-30 -64.5t-27 -54.5q-27 -60 -79.5 -169.5t-68.5 -143.5q-23 -50 -44 -96q127 -6 224 -37q19 -6 36 -22t20 -34zM1316 291q36 83 162 348q47 98 77 165q21 49 39 92q1 2 10 22q-56 -31 -118.5 -76.5t-104 -80.5t-105.5 -92q-178 -157 -333 -337 q-28 -33 -61 -73q193 27 379 31q28 1 55 1z" />
<glyph unicode="&#xc2;" horiz-adv-x="1763" d="M1712 196q3 -17 -5.5 -27t-25.5 -4q-115 36 -288 36q-32 -76 -56 -142q-31 -85 -52 -163q-17 -60 -20 -80q0 -3 -0.5 -14.5t-2.5 -16.5q0 -3 1 -8q30 -20 34 -45q4 -17 -5 -27.5t-26 -4.5q-124 45 -79 225q32 127 90 273q-200 -6 -391 -37q-46 -7 -93 -16 q-220 -292 -376 -625q-13 -27 -50 -4q-33 21 -40 50q-2 10 2 18q129 276 302 526q-257 -62 -503 -165q-24 -10 -55 23q-31 32 -21 54q3 8 12 11q319 134 655 199q71 93 145 180q161 186 345 347q79 69 132 112.5t132.5 95t152.5 80.5q18 8 41 -9t31 -35q12 -29 13.5 -60 t-10 -67t-20.5 -59t-30 -64.5t-27 -54.5q-27 -60 -79.5 -169.5t-68.5 -143.5q-23 -50 -44 -96q127 -6 224 -37q19 -6 36 -22t20 -34zM1316 291q36 83 162 348q47 98 77 165q21 49 39 92q1 2 10 22q-56 -31 -118.5 -76.5t-104 -80.5t-105.5 -92q-178 -157 -333 -337 q-28 -33 -61 -73q193 27 379 31q28 1 55 1z" />
<glyph unicode="&#xc1;" horiz-adv-x="1763" d="M1712 196q3 -17 -5.5 -27t-25.5 -4q-115 36 -288 36q-32 -76 -56 -142q-31 -85 -52 -163q-17 -60 -20 -80q0 -3 -0.5 -14.5t-2.5 -16.5q0 -3 1 -8q30 -20 34 -45q4 -17 -5 -27.5t-26 -4.5q-124 45 -79 225q32 127 90 273q-200 -6 -391 -37q-46 -7 -93 -16 q-220 -292 -376 -625q-13 -27 -50 -4q-33 21 -40 50q-2 10 2 18q129 276 302 526q-257 -62 -503 -165q-24 -10 -55 23q-31 32 -21 54q3 8 12 11q319 134 655 199q71 93 145 180q161 186 345 347q79 69 132 112.5t132.5 95t152.5 80.5q18 8 41 -9t31 -35q12 -29 13.5 -60 t-10 -67t-20.5 -59t-30 -64.5t-27 -54.5q-27 -60 -79.5 -169.5t-68.5 -143.5q-23 -50 -44 -96q127 -6 224 -37q19 -6 36 -22t20 -34zM1316 291q36 83 162 348q47 98 77 165q21 49 39 92q1 2 10 22q-56 -31 -118.5 -76.5t-104 -80.5t-105.5 -92q-178 -157 -333 -337 q-28 -33 -61 -73q193 27 379 31q28 1 55 1z" />
<glyph unicode="&#xc0;" horiz-adv-x="1763" d="M1712 196q3 -17 -5.5 -27t-25.5 -4q-115 36 -288 36q-32 -76 -56 -142q-31 -85 -52 -163q-17 -60 -20 -80q0 -3 -0.5 -14.5t-2.5 -16.5q0 -3 1 -8q30 -20 34 -45q4 -17 -5 -27.5t-26 -4.5q-124 45 -79 225q32 127 90 273q-200 -6 -391 -37q-46 -7 -93 -16 q-220 -292 -376 -625q-13 -27 -50 -4q-33 21 -40 50q-2 10 2 18q129 276 302 526q-257 -62 -503 -165q-24 -10 -55 23q-31 32 -21 54q3 8 12 11q319 134 655 199q71 93 145 180q161 186 345 347q79 69 132 112.5t132.5 95t152.5 80.5q18 8 41 -9t31 -35q12 -29 13.5 -60 t-10 -67t-20.5 -59t-30 -64.5t-27 -54.5q-27 -60 -79.5 -169.5t-68.5 -143.5q-23 -50 -44 -96q127 -6 224 -37q19 -6 36 -22t20 -34zM1316 291q36 83 162 348q47 98 77 165q21 49 39 92q1 2 10 22q-56 -31 -118.5 -76.5t-104 -80.5t-105.5 -92q-178 -157 -333 -337 q-28 -33 -61 -73q193 27 379 31q28 1 55 1z" />
<glyph unicode="B" horiz-adv-x="1144" d="M429 -198q0 -32 -34 -18q-33 14 -50 44q-7 11 -7 20q4 218 66.5 425t179.5 391q13 13 35.5 3t39 -37t5.5 -45q-112 -175 -171.5 -375t-63.5 -408zM1282 904q43 -43 55 -94t-0.5 -96.5t-44.5 -94.5t-67 -85.5t-77 -71.5q-149 -127 -335 -193q28 -14 51 -31q70 -53 88 -134 t-24 -158q-21 -38 -55 -73t-77.5 -64t-81 -50t-84.5 -44q-205 -99 -357 -17q-17 10 -32.5 27.5t-13.5 35t16.5 21t28.5 -4.5q110 -60 286 23q152 71 237 155q20 20 38.5 49t30 61.5t4.5 64t-35 51.5q-27 18 -70 27.5t-70.5 10.5t-76.5 1q-22 -1 -51 36q-32 39 -12 50 q3 2 8 3q290 47 508 232q81 68 137 151q107 154 -15 190q-8 3 -16 4q-35 8 -72 9t-77 -4t-74 -11.5t-77 -19.5t-70.5 -21.5t-69.5 -23.5q-234 -81 -401 -198q-30 -20 -48 -33.5t-47 -38.5t-47 -46.5t-33 -49.5t-18 -56q-4 -33 -40 -17q-32 14 -46 43q-6 11 -5 21q4 40 25 79 t47 68.5t66 61.5t68.5 50.5t70.5 44.5q232 141 502 206q53 13 92 20.5t94.5 12t98.5 -1t88.5 -24.5t79.5 -53z" />
<glyph unicode="C" horiz-adv-x="830" d="M818 175q8 9 22 7t26.5 -12t23.5 -23.5t13 -27t-6 -23.5q-133 -143 -284 -253q-62 -45 -95 -67.5t-90.5 -54t-106.5 -45.5q-60 -20 -122 -5t-102 66q-23 29 -34.5 66t-12 80.5t2.5 76t10 77.5q49 314 265 625q112 163 215 245q32 26 59.5 43t62.5 30t69 8t64 -29 q49 -40 61 -99t2 -134q-24 -172 -107 -329q-14 -18 -37 -10.5t-41.5 32.5t-9.5 42q76 144 101 294q15 90 6 129q-1 2 -1 5q-2 10 -4.5 11.5t-14.5 0.5q-6 -1 -30 -10q-31 -13 -67 -38q-172 -117 -329 -398q-146 -262 -178 -497q-10 -80 -5 -142q3 -36 17.5 -49.5t49.5 -11.5 q11 1 24 3.5t23 5t24 8.5t22 9t23.5 11t21 11t22.5 13.5t20.5 12t21.5 13.5t20 12q210 132 385 321z" />
<glyph unicode="D" horiz-adv-x="1248" d="M1114 894q49 -47 69.5 -107t12.5 -122.5t-29.5 -120.5t-56.5 -116q-119 -197 -380 -386q-229 -165 -496 -272q-4 -20 -6 -36q-4 -33 -40 -17q-32 14 -46 43q-6 11 -5 20q3 18 6 41q-5 18 5 27q40 232 146 441t268 378q9 9 23 6.5t26.5 -12.5t23.5 -23t12.5 -27t-5.5 -23 q-140 -145 -237.5 -321t-145.5 -370q220 99 406 235q221 163 335 327q22 33 43.5 71t41.5 90.5t26.5 97.5t-10 86.5t-59.5 62.5q-69 34 -203 23q-123 -10 -250 -44q-244 -67 -452 -212q-17 -12 -44 4t-37 39t2 37q276 192 595 249q54 9 95.5 14t96.5 6t98.5 -6.5t89.5 -28 t81 -54.5z" />
<glyph unicode="E" horiz-adv-x="735" d="M673 -56q18 12 45 -4.5t37 -39t-2 -35.5q-196 -130 -395 -151q-90 -9 -170 22t-117 105q-15 29 -20 60.5t2.5 65.5t15.5 61.5t28 64t32 57t34 55.5q5 8 7 12q80 126 188 236q-45 14 -78 49q-86 89 -6 223q63 105 171 164t230 59q27 -1 53 -38t9 -49q-6 -4 -16 -4 q-79 0 -154 -29t-134 -83q-67 -62 -95 -132q-6 -15 -9 -25.5t-2.5 -22t8 -19.5t22.5 -13q9 -2 19.5 -2.5t23 2t21 4.5t23 6.5t19.5 5.5q9 3 22.5 -2.5t26 -15t22 -21.5t10 -24t-8.5 -21q-135 -114 -234 -251q-60 -83 -100.5 -154.5t-55.5 -142.5q-20 -89 59 -108 q59 -14 141 1q175 32 328 134z" />
<glyph unicode="&#xca;" horiz-adv-x="735" d="M673 -56q18 12 45 -4.5t37 -39t-2 -35.5q-196 -130 -395 -151q-90 -9 -170 22t-117 105q-15 29 -20 60.5t2.5 65.5t15.5 61.5t28 64t32 57t34 55.5q5 8 7 12q80 126 188 236q-45 14 -78 49q-86 89 -6 223q63 105 171 164t230 59q27 -1 53 -38t9 -49q-6 -4 -16 -4 q-79 0 -154 -29t-134 -83q-67 -62 -95 -132q-6 -15 -9 -25.5t-2.5 -22t8 -19.5t22.5 -13q9 -2 19.5 -2.5t23 2t21 4.5t23 6.5t19.5 5.5q9 3 22.5 -2.5t26 -15t22 -21.5t10 -24t-8.5 -21q-135 -114 -234 -251q-60 -83 -100.5 -154.5t-55.5 -142.5q-20 -89 59 -108 q59 -14 141 1q175 32 328 134z" />
<glyph unicode="&#xc9;" horiz-adv-x="735" d="M673 -56q18 12 45 -4.5t37 -39t-2 -35.5q-196 -130 -395 -151q-90 -9 -170 22t-117 105q-15 29 -20 60.5t2.5 65.5t15.5 61.5t28 64t32 57t34 55.5q5 8 7 12q80 126 188 236q-45 14 -78 49q-86 89 -6 223q63 105 171 164t230 59q27 -1 53 -38t9 -49q-6 -4 -16 -4 q-79 0 -154 -29t-134 -83q-67 -62 -95 -132q-6 -15 -9 -25.5t-2.5 -22t8 -19.5t22.5 -13q9 -2 19.5 -2.5t23 2t21 4.5t23 6.5t19.5 5.5q9 3 22.5 -2.5t26 -15t22 -21.5t10 -24t-8.5 -21q-135 -114 -234 -251q-60 -83 -100.5 -154.5t-55.5 -142.5q-20 -89 59 -108 q59 -14 141 1q175 32 328 134z" />
<glyph unicode="&#xc8;" horiz-adv-x="735" d="M673 -56q18 12 45 -4.5t37 -39t-2 -35.5q-196 -130 -395 -151q-90 -9 -170 22t-117 105q-15 29 -20 60.5t2.5 65.5t15.5 61.5t28 64t32 57t34 55.5q5 8 7 12q80 126 188 236q-45 14 -78 49q-86 89 -6 223q63 105 171 164t230 59q27 -1 53 -38t9 -49q-6 -4 -16 -4 q-79 0 -154 -29t-134 -83q-67 -62 -95 -132q-6 -15 -9 -25.5t-2.5 -22t8 -19.5t22.5 -13q9 -2 19.5 -2.5t23 2t21 4.5t23 6.5t19.5 5.5q9 3 22.5 -2.5t26 -15t22 -21.5t10 -24t-8.5 -21q-135 -114 -234 -251q-60 -83 -100.5 -154.5t-55.5 -142.5q-20 -89 59 -108 q59 -14 141 1q175 32 328 134z" />
<glyph unicode="F" horiz-adv-x="660" d="M532 930q27 5 59 -33q29 -35 16 -50q-4 -4 -10 -5q-15 -3 -27 -10t-23 -21.5t-16 -22t-16.5 -29.5t-12.5 -25q-38 -69 -72 -139q-69 -141 -125 -288q-25 -66 -50 -139q110 11 223 -8q26 -4 46 -39q21 -36 1 -47q-8 -4 -22 -1q-110 18 -223 1q33 -20 55 -52.5t24 -69.5 q2 -42 -16.5 -87t-50.5 -83t-66.5 -69t-71.5 -55q-23 -16 -50 8q-19 16 -31.5 34.5t-17 40.5t-6 40.5t3.5 45.5t9 43t12.5 46.5t11.5 43.5q12 46 25 94q0 1 -1 1.5t-2 0.5q-9 7 -20 22.5t-15 31.5t14 23q25 8 52 15q27 87 59 172q65 178 148 348q46 93 89 171 q11 19 18.5 30.5t19.5 26t26.5 23t32.5 11.5zM263 5q-5 4 -15 6.5t-23.5 3.5t-16.5 2q-1 -2 -2.5 -7.5t-2.5 -7.5q-21 -76 -40 -152l-12 -54q83 76 110 158q5 14 6.5 21t1 16t-5.5 14z" />
<glyph unicode="G" horiz-adv-x="958" d="M794 762q12 46 19 89q0 1 0.5 10t1 21.5t0.5 20.5l-2 -0.5t-3 -0.5q-27 -6 -67 -31q-100 -62 -184 -159.5t-163 -224.5q-154 -243 -224 -486q-21 -73 -27 -122q-11 -85 6 -114q48 -80 248 91l4 4q237 202 384 480q14 18 37 10t41.5 -33t9.5 -42q-138 -265 -149 -559 q-2 -32 -36 -18q-33 13 -49 43q-7 11 -6 21q4 96 20 190q-18 -21 -27 -30q-69 -76 -146 -142q-35 -30 -55 -46t-54.5 -37.5t-64.5 -31.5q-75 -26 -145 8.5t-97 109.5q-12 33 -15.5 69.5t3 77t13.5 70.5t19 72q90 309 300 597q105 144 210 232q24 20 41.5 33t46.5 30.5 t52.5 24.5t51.5 6.5t52 -14.5q22 -12 36.5 -28.5t21 -37.5t9.5 -40t0 -45.5t-5.5 -43.5t-8.5 -44q-40 -186 -157 -389q-15 -18 -38.5 -10t-41.5 33t-8 41q104 180 146 345zM818 921q-3 -4 -2 -7q1 6 2 7z" />
<glyph unicode="H" horiz-adv-x="1135" d="M1305 580q25 3 52 -32q27 -36 10 -53q-5 -5 -16 -6q-163 -18 -330 -42q-95 -248 -167 -505q-7 -26 -43 -5q-34 19 -44 50q-4 11 -1 20q59 213 136 422q-186 -29 -371 -66q-107 -272 -190 -552q15 -22 10 -39q-15 -50 -50 -92q-9 -9 -20.5 -8.5t-24 10t-22 22t-15 26 t-2.5 22.5q82 296 191 585q-142 -30 -279 -64q-27 -6 -58 30q-30 34 -18 52q3 5 11 7q192 47 387 86q87 220 187 432q13 27 50 4q34 -22 40 -51q2 -10 -1 -18q-81 -169 -152 -343q182 34 366 61q96 246 213 480q13 18 36 10.5t41.5 -32.5t10.5 -42q-97 -195 -180 -399 q122 17 243 30z" />
<glyph unicode="I" horiz-adv-x="702" d="M641 935q10 -16 11 -34.5t-6 -38t-14.5 -34.5t-20 -36.5t-17.5 -31.5q-93 -185 -102 -202q-58 -118 -98.5 -211.5t-81.5 -207.5t-63.5 -227.5t-25.5 -225.5q-2 -32 -36 -18q-33 14 -49 44q-7 11 -6 20q9 289 151 628q51 122 141 303q12 23 25 48.5t28.5 56.5l24.5 49 q3 7 21 43q-31 -15 -57 -29q-67 -38 -130 -93q-123 -107 -195 -252q-14 -18 -37 -10.5t-41.5 32.5t-10.5 43q102 204 283 327l9 6q20 14 32.5 22t37 23t41.5 22.5t41.5 17.5t43 11t38 -1t35.5 -13.5t28 -30.5z" />
<glyph unicode="&#xce;" horiz-adv-x="702" d="M641 935q10 -16 11 -34.5t-6 -38t-14.5 -34.5t-20 -36.5t-17.5 -31.5q-93 -185 -102 -202q-58 -118 -98.5 -211.5t-81.5 -207.5t-63.5 -227.5t-25.5 -225.5q-2 -32 -36 -18q-33 14 -49 44q-7 11 -6 20q9 289 151 628q51 122 141 303q12 23 25 48.5t28.5 56.5l24.5 49 q3 7 21 43q-31 -15 -57 -29q-67 -38 -130 -93q-123 -107 -195 -252q-14 -18 -37 -10.5t-41.5 32.5t-10.5 43q102 204 283 327l9 6q20 14 32.5 22t37 23t41.5 22.5t41.5 17.5t43 11t38 -1t35.5 -13.5t28 -30.5z" />
<glyph unicode="&#xcd;" horiz-adv-x="702" d="M641 935q10 -16 11 -34.5t-6 -38t-14.5 -34.5t-20 -36.5t-17.5 -31.5q-93 -185 -102 -202q-58 -118 -98.5 -211.5t-81.5 -207.5t-63.5 -227.5t-25.5 -225.5q-2 -32 -36 -18q-33 14 -49 44q-7 11 -6 20q9 289 151 628q51 122 141 303q12 23 25 48.5t28.5 56.5l24.5 49 q3 7 21 43q-31 -15 -57 -29q-67 -38 -130 -93q-123 -107 -195 -252q-14 -18 -37 -10.5t-41.5 32.5t-10.5 43q102 204 283 327l9 6q20 14 32.5 22t37 23t41.5 22.5t41.5 17.5t43 11t38 -1t35.5 -13.5t28 -30.5z" />
<glyph unicode="&#xcc;" horiz-adv-x="702" d="M641 935q10 -16 11 -34.5t-6 -38t-14.5 -34.5t-20 -36.5t-17.5 -31.5q-93 -185 -102 -202q-58 -118 -98.5 -211.5t-81.5 -207.5t-63.5 -227.5t-25.5 -225.5q-2 -32 -36 -18q-33 14 -49 44q-7 11 -6 20q9 289 151 628q51 122 141 303q12 23 25 48.5t28.5 56.5l24.5 49 q3 7 21 43q-31 -15 -57 -29q-67 -38 -130 -93q-123 -107 -195 -252q-14 -18 -37 -10.5t-41.5 32.5t-10.5 43q102 204 283 327l9 6q20 14 32.5 22t37 23t41.5 22.5t41.5 17.5t43 11t38 -1t35.5 -13.5t28 -30.5z" />
<glyph unicode="J" horiz-adv-x="1222" d="M1148 150q37 -42 17 -62q-8 -8 -20.5 -5.5t-23.5 9t-18 14.5q-97 112 -266 110q-133 -189 -292 -355q-94 -99 -197 -189q-28 -24 -47.5 -39t-47 -32t-56 -25t-59.5 -7q-18 1 -35 14.5t-27 32.5q-25 46 -26.5 93.5t17.5 92t45 81t63 76.5q169 180 311 262q130 75 278 83 q0 1 1.5 2.5l2.5 2.5q57 83 88.5 130t72.5 124.5t63 144.5q4 13 8 27.5t8.5 37t5 41.5t-2.5 36t-13.5 27.5t-28.5 10.5q-31 0 -71.5 -10.5t-66.5 -20t-68 -27.5q-195 -81 -343 -244q-8 -9 -22 -7t-26.5 12t-23.5 23t-13 27t6 24q95 106 216.5 181t256.5 112q45 13 75.5 17.5 t69.5 -3t69 -31.5q40 -33 58.5 -82.5t15.5 -104.5q-2 -35 -11.5 -72.5t-18.5 -66t-30 -70.5t-32 -63t-40 -67t-37.5 -58.5t-40.5 -60.5q156 -30 256 -146zM490 -34q99 106 189 223q-68 -22 -129 -57q-116 -67 -261 -217l-12 -12q-32 -33 -50 -53t-43 -53.5t-36.5 -66 t-8.5 -64.5q19 5 37 14t38.5 25t30.5 24t34.5 31.5t28.5 26.5q95 86 182 179z" />
<glyph unicode="K" horiz-adv-x="1086" d="M1708 889q26 7 57 -28q30 -33 19 -52q-4 -6 -12 -8q-276 -79 -528 -222t-464 -339q4 -97 39 -187.5t100.5 -164.5t152.5 -110q27 -11 2 -47q-23 -33 -53 -39q-10 -2 -18 1q-88 37 -156.5 110t-107 162t-49.5 187q-156 -159 -279 -342q-43 -72 -124 -205q-15 -17 -38 -9.5 t-41 32.5t-9 42q61 113 133 220q127 214 223 399t168 371q35 90 47 131q9 32 9 51q1 12 -2 24q5 -26 -19 -27q-17 -13 -58.5 -27.5t-50.5 -18.5q-61 -28 -120 -62q-219 -125 -394 -326q-7 -9 -21 -7t-27 11.5t-23.5 23t-12.5 27.5t5 24q173 199 402 331q99 58 204 100 q36 14 62.5 18.5t56 -4t53.5 -35.5q54 -60 28 -157q-19 -70 -85 -227q-42 -100 -95 -208q218 206 479 355.5t547 231.5z" />
<glyph unicode="L" horiz-adv-x="599" d="M892 -150q7 -9 11 -19t2 -20.5t-12 -15.5q-15 -8 -34 4.5t-31 28.5q-9 12 -26 18t-41.5 5.5t-37 -2t-35.5 -5.5q-85 -14 -189 -46q-191 -61 -360 -169q-21 -13 -52 10t-35 49q-4 12 0 21l224 532q11 28 51.5 120t58.5 136.5t40 119.5t30 138q6 41 5 68q0 12 -1 24 q-1 24 -8 6q-8 -1 -17 -5t-20.5 -13.5t-17 -14t-18 -17t-13.5 -12.5q-69 -65 -114 -156q-84 -170 -63 -319q3 -18 -15 -20.5t-29 4.5q-18 9 -31 26t-15 36q-12 81 6.5 169t58.5 169q44 88 104 151q91 95 152 96q41 1 75 -30.5t48 -74.5q9 -30 9.5 -68t-3.5 -65.5t-13 -68.5 q-12 -60 -35.5 -130t-42.5 -116t-55.5 -128.5t-50.5 -116.5q-50 -120 -151 -359q156 79 319 120q47 12 80 18.5t79.5 9.5t80.5 -4t70 -28t62 -56z" />
<glyph unicode="M" horiz-adv-x="1522" d="M1413 627q18 -8 30.5 -20t18 -27t9 -28.5t1 -33t-4.5 -33t-9.5 -35t-11.5 -32t-13 -32.5t-12 -28q-11 -28 -31.5 -78t-37 -91.5t-29.5 -78.5q-1 -4 -9.5 -27.5t-12.5 -35t-10 -34t-7.5 -37.5t-0.5 -33t8 -31q8 -14 4.5 -28t-21.5 -16q-17 -2 -35 13.5t-27 32.5 q-32 67 -1 185q7 25 14.5 49t20 57t17.5 45.5t23 56.5t19 47q6 14 17.5 41t18.5 43.5t15.5 40.5t14.5 44l-30 -20q-50 -37 -113 -97q-129 -122 -244 -273q-125 -163 -169 -280q-11 -30 -50 -2q-32 24 -38 51q-1 4 -1 7q0 13 1.5 26.5t6 29.5t7 25.5t10 29t9.5 25t11.5 28 t10.5 24.5q23 55 68 155t54 122q5 10 27.5 61.5t30.5 70t25.5 64t25 73.5t15.5 66t9 72l-12 -8t-13 -9.5t-11.5 -9t-12.5 -10.5t-11 -10l-11.5 -11.5l-10 -10t-11 -11.5t-10.5 -10q-82 -85 -158 -181t-171 -228q-198 -277 -399 -605q-15 -17 -38.5 -9t-41.5 32.5t-8 41.5 q86 148 132 229t112.5 210t113.5 239q74 175 114 321q14 55 16 87q0 2 -2 24q-14 -1 -21 -4q-45 -16 -107 -66q-134 -109 -233 -269q-111 -180 -101 -316q1 -18 -16 -21t-29 5q-18 9 -31.5 26t-14.5 36q-13 176 151 406q127 179 266 262q31 19 63 26.5t62.5 3.5t55.5 -25.5 t39 -59.5q19 -53 -2 -148q-22 -99 -70 -224q51 68 74.5 99t69 86.5t87 96.5t85.5 75q20 16 34 25t36 15.5t42 1.5q34 -9 57 -39.5t27 -67.5q3 -28 -1.5 -64.5t-10 -59t-17.5 -63.5q-26 -95 -96 -256q110 127 215 214q3 3 10 9q17 14 26.5 22t28 21.5t33 20t32 12t34 4.5 t31.5 -9zM1067 794zM622 856zM1036 823v2v-2zM1382 584q-1 -1 1 -4q0 4 -1 4z" />
<glyph unicode="N" horiz-adv-x="1283" d="M1098 779q34 7 60.5 -4.5t41 -34.5t24 -52.5t9.5 -60t-2 -56.5q-13 -102 -65 -266q-28 -87 -67 -194q-5 -13 -15 -37t-18 -42t-16 -42.5t-11.5 -44.5t-2.5 -42t8 -40q16 -40 -13 -42q-28 -1 -53 26q-9 8 -12 17q-16 39 -17 80t7 74t25 78q49 128 80 223q64 190 79 295 q6 40 4 71q-16 -6 -28 -13q-18 -10 -37 -24t-34 -25.5t-35.5 -31t-31 -29.5t-32.5 -34.5t-29 -32t-30.5 -35t-27.5 -31.5q-314 -359 -553 -752q-15 -17 -38.5 -9.5t-41 32.5t-8.5 42q235 438 436 958q4 11 16 39.5t19.5 49.5t12.5 41q8 26 7 43q-14 -2 -28 -8 q-38 -14 -84.5 -44t-71 -49t-75.5 -61q-98 -81 -182 -176q-4 -5 -17.5 -20t-19.5 -22t-18.5 -22t-19 -24.5t-17 -24.5t-15.5 -26t-11 -26t-8 -28t-2 -27t3 -28q7 -33 -19 -31q-28 3 -55 32q-11 12 -14 24q-14 62 8.5 118t71.5 119q83 106 185 197q95 85 202 153 q3 2 19.5 12.5t21 13t20 11.5t22 11.5t20.5 8t23.5 6.5t22 1.5t23.5 -2t23 -8.5q29 -13 47 -32.5t26 -40.5t8 -49.5t-4.5 -52t-15 -55t-19.5 -52.5t-21.5 -51t-18.5 -44q-54 -139 -117 -284q130 169 245 291q2 2 32.5 35t40.5 43t38.5 36.5t46 38.5t43.5 25t50 18zM1140 714 z" />
<glyph unicode="O" horiz-adv-x="781" d="M588 846q78 -81 113 -187t30.5 -211.5t-39.5 -216.5q-25 -78 -50.5 -143t-64 -139.5t-90 -134t-111.5 -95.5q-63 -35 -124 -23t-109 66q-89 98 -93 273q-3 142 45 290.5t130 285.5q80 132 183 237q56 56 111 90t120 41q25 2 52 -33t10 -52q-5 -5 -16 -6q-51 -6 -102 -38 q3 -2 5 -4zM617 341q22 82 26 160t-20 160.5t-79 139.5q-5 5 -10 12q-30 -26 -75 -75q-95 -103 -162 -221q-137 -239 -154 -465q-13 -171 45 -246q17 -21 40 -24.5t45 5.5t47 27.5t41 34.5t32 33q145 164 224 459z" />
<glyph unicode="&#xd6;" horiz-adv-x="781" d="M588 846q78 -81 113 -187t30.5 -211.5t-39.5 -216.5q-25 -78 -50.5 -143t-64 -139.5t-90 -134t-111.5 -95.5q-63 -35 -124 -23t-109 66q-89 98 -93 273q-3 142 45 290.5t130 285.5q80 132 183 237q56 56 111 90t120 41q25 2 52 -33t10 -52q-5 -5 -16 -6q-51 -6 -102 -38 q3 -2 5 -4zM617 341q22 82 26 160t-20 160.5t-79 139.5q-5 5 -10 12q-30 -26 -75 -75q-95 -103 -162 -221q-137 -239 -154 -465q-13 -171 45 -246q17 -21 40 -24.5t45 5.5t47 27.5t41 34.5t32 33q145 164 224 459z" />
<glyph unicode="&#xd5;" horiz-adv-x="781" d="M588 846q78 -81 113 -187t30.5 -211.5t-39.5 -216.5q-25 -78 -50.5 -143t-64 -139.5t-90 -134t-111.5 -95.5q-63 -35 -124 -23t-109 66q-89 98 -93 273q-3 142 45 290.5t130 285.5q80 132 183 237q56 56 111 90t120 41q25 2 52 -33t10 -52q-5 -5 -16 -6q-51 -6 -102 -38 q3 -2 5 -4zM617 341q22 82 26 160t-20 160.5t-79 139.5q-5 5 -10 12q-30 -26 -75 -75q-95 -103 -162 -221q-137 -239 -154 -465q-13 -171 45 -246q17 -21 40 -24.5t45 5.5t47 27.5t41 34.5t32 33q145 164 224 459z" />
<glyph unicode="&#xd4;" horiz-adv-x="781" d="M588 846q78 -81 113 -187t30.5 -211.5t-39.5 -216.5q-25 -78 -50.5 -143t-64 -139.5t-90 -134t-111.5 -95.5q-63 -35 -124 -23t-109 66q-89 98 -93 273q-3 142 45 290.5t130 285.5q80 132 183 237q56 56 111 90t120 41q25 2 52 -33t10 -52q-5 -5 -16 -6q-51 -6 -102 -38 q3 -2 5 -4zM617 341q22 82 26 160t-20 160.5t-79 139.5q-5 5 -10 12q-30 -26 -75 -75q-95 -103 -162 -221q-137 -239 -154 -465q-13 -171 45 -246q17 -21 40 -24.5t45 5.5t47 27.5t41 34.5t32 33q145 164 224 459z" />
<glyph unicode="&#xd3;" horiz-adv-x="781" d="M588 846q78 -81 113 -187t30.5 -211.5t-39.5 -216.5q-25 -78 -50.5 -143t-64 -139.5t-90 -134t-111.5 -95.5q-63 -35 -124 -23t-109 66q-89 98 -93 273q-3 142 45 290.5t130 285.5q80 132 183 237q56 56 111 90t120 41q25 2 52 -33t10 -52q-5 -5 -16 -6q-51 -6 -102 -38 q3 -2 5 -4zM617 341q22 82 26 160t-20 160.5t-79 139.5q-5 5 -10 12q-30 -26 -75 -75q-95 -103 -162 -221q-137 -239 -154 -465q-13 -171 45 -246q17 -21 40 -24.5t45 5.5t47 27.5t41 34.5t32 33q145 164 224 459z" />
<glyph unicode="&#xd2;" horiz-adv-x="781" d="M588 846q78 -81 113 -187t30.5 -211.5t-39.5 -216.5q-25 -78 -50.5 -143t-64 -139.5t-90 -134t-111.5 -95.5q-63 -35 -124 -23t-109 66q-89 98 -93 273q-3 142 45 290.5t130 285.5q80 132 183 237q56 56 111 90t120 41q25 2 52 -33t10 -52q-5 -5 -16 -6q-51 -6 -102 -38 q3 -2 5 -4zM617 341q22 82 26 160t-20 160.5t-79 139.5q-5 5 -10 12q-30 -26 -75 -75q-95 -103 -162 -221q-137 -239 -154 -465q-13 -171 45 -246q17 -21 40 -24.5t45 5.5t47 27.5t41 34.5t32 33q145 164 224 459z" />
<glyph unicode="P" horiz-adv-x="1240" d="M1108 834q51 -59 70 -132.5t8 -146t-42 -141t-78 -128.5q-101 -125 -251 -204q-167 -89 -273 -72q-59 9 -100 53q-51 -193 -83 -389q-4 -26 -39 -6t-47 51q-4 11 -3 19q85 523 307 1003q13 27 50 4q33 -21 40 -50q2 -11 -1 -18q-64 -138 -118 -283q23 17 48 30 q17 10 42 -8.5t32.5 -42t-9.5 -37.5q-61 -34 -110 -89.5t-59 -116.5q-3 -20 2.5 -25.5t25.5 -6.5q24 -2 56 5q50 10 118 39q112 49 206 131t147 185q27 52 40.5 108.5t11 112.5t-33.5 104t-88 74q-57 27 -122.5 32t-133 -9.5t-123 -34t-120.5 -49.5q-120 -55 -205 -127 q-48 -41 -84 -85q-23 -28 -35 -48q-22 -37 -21 -40q25 -39 0 -50q-22 -11 -49 11q-9 8 -15 17q-18 29 -18.5 61.5t10.5 58.5t35 56.5t44 49.5t47 43q123 107 317 179q81 30 159.5 43.5t159.5 9t155.5 -40t129.5 -100.5z" />
<glyph unicode="Q" horiz-adv-x="942" d="M810 216q-73 -162 -195 -281q-20 -20 -42 -38q3 -81 45.5 -146.5t117.5 -91.5q19 -7 35.5 -22.5t20.5 -33.5q3 -17 -6 -27.5t-26 -4.5q-92 32 -162.5 104.5t-98.5 164.5q-89 -58 -174 -68q-81 -8 -149.5 37t-99.5 123q-20 49 -24 111t1.5 110t18.5 113q33 169 113 324 t198 283q53 74 113 112q56 35 116.5 27t113 -43t86.5 -86q46 -67 65.5 -154.5t13.5 -177t-26.5 -174t-54.5 -161.5zM528 2q126 121 199 293q58 135 68 271q14 190 -42 286q-19 34 -51.5 53.5t-70.5 17.5q-58 -4 -118 -73q-2 -6 -6 -11l-17 -17q-89 -111 -136 -257 q-7 -16 -23 -14t-34 17q-84 -147 -124 -310q-44 -180 -27 -289q14 -91 76 -105q56 -12 138 24q63 28 123 75q0 13 1 24q3 17 15.5 20.5t28.5 -5.5z" />
<glyph unicode="R" horiz-adv-x="1125" d="M585 173q-82 -25 -113 -31q-5 -11 -15 -40q102 -82 238 -159q321 -182 583 -163q18 2 20 -16t-6 -29q-10 -18 -27.5 -30t-37.5 -13q-273 -20 -601 166q-115 65 -205 133q-31 -102 -53 -202q-5 -26 -40 -6q-34 20 -46 50q-4 11 -2 20q22 103 54 208q-64 56 -114 115 q-8 10 -4.5 24t14 26.5t24.5 22.5t27.5 10.5t22.5 -8.5q4 -5 14 -17q30 -12 73 -9q109 287 281 542q14 13 36.5 2.5t38.5 -37.5t5 -44q-138 -203 -234 -430q5 2 29 10.5t35 12.5q137 46 251 104q234 121 370 301q19 24 33.5 49t26.5 57.5t5 60.5t-37 44q-28 15 -67.5 21 t-66.5 5.5t-72 -3.5q-259 -16 -504 -127q-124 -56 -231 -131q-4 -3 -16.5 -11.5t-20 -14t-22 -16t-23.5 -18.5t-21.5 -19.5t-20 -21t-15.5 -21.5t-11 -22.5t-3 -22t4 -22.5q16 -40 -13 -41q-28 -1 -53 25q-9 8 -12 18q-12 27 -13.5 53.5t8 50t22 44t34 41t39.5 35t43 32.5 q144 104 307 171q150 61 305.5 92.5t293.5 15.5q143 -16 212 -103q31 -38 39.5 -82t-1.5 -86t-36 -84q-133 -219 -447 -372q-128 -63 -284 -110z" />
<glyph unicode="S" horiz-adv-x="1381" d="M1432 207q7 -12 4 -29.5t-21 -15.5q-55 7 -114 -3.5t-119.5 -37.5t-105 -52t-102.5 -61q-3 -2 -9 -6.5t-9 -5.5q11 -10 18 -18q20 -25 25 -49.5t-1 -44t-24 -41t-35 -36t-42 -33.5q-128 -94 -286 -128q-25 -5 -51 18t-27 49q0 28 9.5 55t21 46t35.5 43.5t37.5 36 t42.5 35.5q35 29 79 63q-42 10 -120 29.5t-110 26.5q-6 2 -19 5q-40 10 -61.5 15.5t-62.5 17t-65.5 21t-61 25.5t-59.5 31.5t-50.5 37.5t-44.5 45.5t-31 54t-20 64.5q-22 135 128 284q120 119 279 213q157 91 330 140l66.5 19t65 15.5t75.5 12.5t66 0t67 -13q65 -22 108 -82 t51 -131q5 -42 -3.5 -84t-31 -84.5t-41 -70.5t-51.5 -72q-14 -12 -37 -1.5t-39 37.5t-3 44q19 25 29.5 39.5t29 43.5t28 49t20.5 49t12.5 52t-3.5 49.5t-19 49.5q-6 10 -15.5 17t-19 11t-23.5 5.5t-24 2t-26.5 -1.5t-24.5 -3t-25 -4t-21 -4q-86 -14 -171 -40 q-320 -97 -558 -325q-20 -20 -36 -37.5t-35.5 -41t-32 -47t-21.5 -49t-8 -52.5t11 -52q11 -27 33.5 -49t55.5 -37.5t56.5 -24t59.5 -18.5q50 -15 105.5 -29t128 -31t106.5 -25q13 -3 67 -14.5t83 -20.5q28 19 50 33q63 40 110.5 66.5t112 55.5t128.5 40.5t123 3.5 q20 -2 37 -15t26 -31zM898 -77q2 1 4 4q13 12 13 17t-17 12q-65 -46 -125 -94q-5 -4 -24 -19.5t-28.5 -23t-24.5 -21.5t-26 -26q132 53 228 151z" />
<glyph unicode="T" horiz-adv-x="748" d="M1408 842q27 -11 40 -45q12 -32 -9 -38q-11 -3 -29 5q-46 18 -101 30.5t-99.5 18t-110 7.5t-103 1.5t-110 -2t-101.5 -2.5q-52 -1 -118 -2q14 -14 21 -30t2 -27q-246 -479 -316 -1003q-5 -33 -41 -17q-32 14 -46 43q-5 11 -4 20q72 537 313 1012q-238 -8 -478 -26 q-26 -2 -52 33q-27 36 -11 51q6 6 17 7q358 27 708 31q12 0 68.5 0.5t74 0.5h68t74 -2t68 -4.5t73 -8t66.5 -12.5t71 -17.5t65 -23.5z" />
<glyph unicode="U" horiz-adv-x="1251" d="M1151 775q24 -11 40 -34.5t7 -38.5q-13 -28 -83.5 -176.5t-97.5 -207t-73.5 -169.5t-77.5 -202q-13 -38 -21 -66t-14 -61.5t-3.5 -64t13.5 -58.5q6 -17 -4.5 -25.5t-27.5 -5.5q-18 3 -33 19.5t-23 36.5q-18 48 -18 97q0 45 14.5 103t25.5 87t38 98q32 79 70 166 q-254 -279 -575 -475q-14 -8 -33 5t-31 28q-18 23 -24 45.5t0.5 49.5t13.5 44t22 48q39 82 123 234q57 106 83.5 155.5t68 138.5t68.5 163q21 59 35 116q3 11 7.5 33t4.5 25q-12 -4 -23 -10q-95 -44 -198 -125q-95 -75 -173 -169q-2 -3 -18 -22t-22.5 -27t-21 -28t-21.5 -32 t-16.5 -31t-12 -33t-1.5 -29.5t8 -29.5q8 -14 4.5 -28t-21 -16t-35 13t-27.5 33q-14 27 -17.5 55t3.5 55t18 50.5t29 51.5q67 103 160 192q79 76 170 136q6 3 26.5 17t29 19.5t27.5 16.5t31.5 16.5t29.5 11t32 7.5q44 6 82 -23t48 -74q3 -13 3.5 -27.5t-1.5 -30.5t-5 -29.5 t-8 -31t-9 -29t-10 -29.5t-9 -26q-33 -101 -80.5 -200.5t-116.5 -227.5q-95 -174 -113 -209q-23 -43 -45 -89q234 158 428.5 365t337.5 450q11 23 40 9h1h1z" />
<glyph unicode="&#xdb;" horiz-adv-x="1251" d="M1151 775q24 -11 40 -34.5t7 -38.5q-13 -28 -83.5 -176.5t-97.5 -207t-73.5 -169.5t-77.5 -202q-13 -38 -21 -66t-14 -61.5t-3.5 -64t13.5 -58.5q6 -17 -4.5 -25.5t-27.5 -5.5q-18 3 -33 19.5t-23 36.5q-18 48 -18 97q0 45 14.5 103t25.5 87t38 98q32 79 70 166 q-254 -279 -575 -475q-14 -8 -33 5t-31 28q-18 23 -24 45.5t0.5 49.5t13.5 44t22 48q39 82 123 234q57 106 83.5 155.5t68 138.5t68.5 163q21 59 35 116q3 11 7.5 33t4.5 25q-12 -4 -23 -10q-95 -44 -198 -125q-95 -75 -173 -169q-2 -3 -18 -22t-22.5 -27t-21 -28t-21.5 -32 t-16.5 -31t-12 -33t-1.5 -29.5t8 -29.5q8 -14 4.5 -28t-21 -16t-35 13t-27.5 33q-14 27 -17.5 55t3.5 55t18 50.5t29 51.5q67 103 160 192q79 76 170 136q6 3 26.5 17t29 19.5t27.5 16.5t31.5 16.5t29.5 11t32 7.5q44 6 82 -23t48 -74q3 -13 3.5 -27.5t-1.5 -30.5t-5 -29.5 t-8 -31t-9 -29t-10 -29.5t-9 -26q-33 -101 -80.5 -200.5t-116.5 -227.5q-95 -174 -113 -209q-23 -43 -45 -89q234 158 428.5 365t337.5 450q11 23 40 9h1h1z" />
<glyph unicode="&#xda;" horiz-adv-x="1251" d="M1151 775q24 -11 40 -34.5t7 -38.5q-13 -28 -83.5 -176.5t-97.5 -207t-73.5 -169.5t-77.5 -202q-13 -38 -21 -66t-14 -61.5t-3.5 -64t13.5 -58.5q6 -17 -4.5 -25.5t-27.5 -5.5q-18 3 -33 19.5t-23 36.5q-18 48 -18 97q0 45 14.5 103t25.5 87t38 98q32 79 70 166 q-254 -279 -575 -475q-14 -8 -33 5t-31 28q-18 23 -24 45.5t0.5 49.5t13.5 44t22 48q39 82 123 234q57 106 83.5 155.5t68 138.5t68.5 163q21 59 35 116q3 11 7.5 33t4.5 25q-12 -4 -23 -10q-95 -44 -198 -125q-95 -75 -173 -169q-2 -3 -18 -22t-22.5 -27t-21 -28t-21.5 -32 t-16.5 -31t-12 -33t-1.5 -29.5t8 -29.5q8 -14 4.5 -28t-21 -16t-35 13t-27.5 33q-14 27 -17.5 55t3.5 55t18 50.5t29 51.5q67 103 160 192q79 76 170 136q6 3 26.5 17t29 19.5t27.5 16.5t31.5 16.5t29.5 11t32 7.5q44 6 82 -23t48 -74q3 -13 3.5 -27.5t-1.5 -30.5t-5 -29.5 t-8 -31t-9 -29t-10 -29.5t-9 -26q-33 -101 -80.5 -200.5t-116.5 -227.5q-95 -174 -113 -209q-23 -43 -45 -89q234 158 428.5 365t337.5 450q11 23 40 9h1h1z" />
<glyph unicode="&#xd9;" horiz-adv-x="1251" d="M1151 775q24 -11 40 -34.5t7 -38.5q-13 -28 -83.5 -176.5t-97.5 -207t-73.5 -169.5t-77.5 -202q-13 -38 -21 -66t-14 -61.5t-3.5 -64t13.5 -58.5q6 -17 -4.5 -25.5t-27.5 -5.5q-18 3 -33 19.5t-23 36.5q-18 48 -18 97q0 45 14.5 103t25.5 87t38 98q32 79 70 166 q-254 -279 -575 -475q-14 -8 -33 5t-31 28q-18 23 -24 45.5t0.5 49.5t13.5 44t22 48q39 82 123 234q57 106 83.5 155.5t68 138.5t68.5 163q21 59 35 116q3 11 7.5 33t4.5 25q-12 -4 -23 -10q-95 -44 -198 -125q-95 -75 -173 -169q-2 -3 -18 -22t-22.5 -27t-21 -28t-21.5 -32 t-16.5 -31t-12 -33t-1.5 -29.5t8 -29.5q8 -14 4.5 -28t-21 -16t-35 13t-27.5 33q-14 27 -17.5 55t3.5 55t18 50.5t29 51.5q67 103 160 192q79 76 170 136q6 3 26.5 17t29 19.5t27.5 16.5t31.5 16.5t29.5 11t32 7.5q44 6 82 -23t48 -74q3 -13 3.5 -27.5t-1.5 -30.5t-5 -29.5 t-8 -31t-9 -29t-10 -29.5t-9 -26q-33 -101 -80.5 -200.5t-116.5 -227.5q-95 -174 -113 -209q-23 -43 -45 -89q234 158 428.5 365t337.5 450q11 23 40 9h1h1z" />
<glyph unicode="V" horiz-adv-x="889" d="M1057 980q15 18 38.5 10t41.5 -33t8 -41q-228 -379 -350 -561q-203 -304 -354 -466q-51 -55 -100 -94t-101.5 -51t-97.5 18.5t-67 83.5q-39 91 -16 260q18 125 65 278q81 259 232 505q13 20 46 -5q35 -25 37 -56q1 -10 -4 -19q-145 -235 -225 -499q-39 -127 -56 -231 q-13 -76 -12 -141v-18t0.5 -25t2 -26.5t5 -23t9.5 -13.5q24 -17 118 57q37 29 79 74q58 61 150 179q96 124 201 280.5t170.5 262.5t179.5 295z" />
<glyph unicode="W" horiz-adv-x="1297" d="M1156 684q4 34 39 18q33 -14 47 -43q6 -12 5 -21q-27 -241 -134 -445q-54 -103 -124 -193q-21 -27 -34.5 -42.5t-36 -38.5t-46 -37t-47.5 -19q-42 -9 -79 19.5t-52 70.5q-8 21 -10 48.5t-1 43t6 53.5t5 44q7 66 14 117q-67 -103 -136 -195q-82 -110 -172 -214 q-25 -29 -39 -43.5t-38 -37t-48.5 -36t-51.5 -20.5q-24 -7 -51.5 17.5t-26.5 49.5q2 38 9.5 79t15.5 72t24.5 77t26 69.5t31 75t28.5 70.5q63 152 188 457q6 14 16 38.5t18.5 45t15.5 38.5q13 34 15 43q0 4 1 7q-3 -1 -4 -1q-15 -11 -49.5 -27.5t-46.5 -23.5 q-42 -27 -83 -60q-228 -183 -208 -356q2 -18 -15.5 -21t-29.5 5q-18 9 -31 26t-15 36q-7 60 11 120t56 111.5t80 93t93 80.5q2 1 17 12.5t19 14.5t18.5 14t21 15t20.5 13.5t22.5 13.5t21.5 10.5t22.5 9.5t21 6t21.5 3q47 4 85 -34.5t43 -85.5q2 -18 -3 -40t-8.5 -31 t-15.5 -38q0 -1 -61 -149q-19 -47 -57.5 -140.5t-57.5 -139.5q-109 -268 -113 -278q-37 -91 -53 -152q20 19 77 84q83 97 160 200q154 206 280 439q5 18 27 13q25 -4 48 -31.5t13 -46.5q-42 -138 -69 -356q-14 -121 -17 -171q-1 -17 -1 -31q1 -3 1 -6q0 3 1 3q5 4 33.5 23.5 t42.5 33.5q126 126 204.5 304.5t99.5 366.5z" />
<glyph unicode="X" horiz-adv-x="914" d="M1280 901q17 12 44 -4.5t37 -39t-2 -35.5q-418 -280 -779 -633q127 -286 356 -428q17 -15 8 -38t-35.5 -40t-42.5 -7q-235 147 -367 432q-194 -197 -364 -410q-15 -12 -38 -1t-38.5 37.5t-2.5 43.5q185 231 397 443q-51 138 -81.5 290.5t-58.5 351.5q-4 27 35 57 q36 27 51 14q4 -4 5 -11q18 -127 31.5 -211t40.5 -200.5t59 -209.5q347 333 745 599z" />
<glyph unicode="Y" horiz-adv-x="1029" d="M907 734q25 3 52.5 -27t17.5 -51q-17 -96 -75 -261q-62 -178 -131.5 -322t-160.5 -262q-94 -119 -181 -141q-72 -18 -123 36q-68 71 -26 197q9 27 45 5q34 -21 43 -51q3 -11 0 -19q-1 -2 -5 -12.5t-6 -17.5t-5.5 -19t-3 -18t2.5 -14q5 -1 11 1q38 13 50 20q43 25 94 83 q87 100 178 286q45 91 78 170q-50 -63 -102 -116q-87 -91 -185 -167q-25 -20 -44 -31t-43 -18t-46.5 2.5t-42.5 34.5q-11 14 -15.5 32.5t-5.5 33t5 38.5t9.5 34t14 37.5t11.5 31.5q20 55 102 239q66 148 92 241q27 98 24 145q-2 23 -9 31t-28 6q-19 -3 -57 -19 q-109 -44 -194 -132q-47 -48 -78 -101q-19 -31 -24 -45q0 -1 -2 -7.5t-3 -8.5v-0.5v-1.5q21 -25 21.5 -46t-30.5 -17q-43 9 -66 48.5t-13 81.5q18 75 116 177q28 28 60.5 55.5t75.5 53.5t84 40.5t84.5 11.5t77.5 -29q28 -21 45.5 -50.5t24.5 -58t4.5 -67.5t-7 -67t-18 -70 t-21.5 -64t-23 -61q-19 -47 -59 -136t-45 -102q-28 -64 -46 -112q-11 -31 -20 -61q9 7 21.5 18t14.5 13q39 31 76 65q79 72 150 155q142 166 241 367q2 15 18 13z" />
<glyph unicode="Z" horiz-adv-x="976" d="M1143 899q40 -18 69 -52.5t14 -71.5q-9 -22 -32 -40.5t-61.5 -38t-46.5 -24.5q-228 -145 -559 -394q-156 -117 -258 -201q-2 -2 -11 -10q175 15 378 -16q71 -11 130.5 -27t124.5 -42.5t116.5 -70t82.5 -99.5q9 -14 5.5 -28.5t-21 -16.5t-35 13t-27.5 33q-31 57 -145 99 q-105 40 -248 56q-289 34 -492 -23q-18 -5 -39.5 8.5t-32.5 36t0 39.5q12 18 31.5 38t33 31.5t42 34.5t35.5 29q107 88 269 209q301 225 519 366q3 2 59.5 34.5t80.5 54.5q-8 2 -10 3q-178 43 -466 -1q-140 -22 -237 -61q-109 -44 -139 -101q-14 -18 -37 -10t-41.5 33 t-9.5 42q43 82 184 133q121 44 299 63q144 16 274 9q135 -8 201 -37zM1157 815l1 -1v2q0 -1 -1 -1z" />
<glyph unicode="a" horiz-adv-x="652" d="M642 219q15 14 37 4.5t29 -28t-6 -33.5q-148 -135 -249 -195q-88 -53 -143 -46q-37 4 -67 31t-41 64q-12 40 4 91q-33 -22 -83.5 -64.5t-96 -75t-91.5 -50.5q-26 -10 -54 20t-22 56q18 81 60 153t103 118q51 37 109 29.5t94 -55.5q14 6 29 9q16 5 38 -11q16 -10 27.5 -25 t11.5 -28q3 -9 -1 -15q-3 -27 -21 -78q-9 -24 -19 -78l1.5 0.5t2.5 0.5q68 8 175 77t173 129zM25 104q4 4 25 21.5t28.5 23.5t24 18.5t30 21.5t26.5 18h-1q-3 0 -9.5 -1.5t-10.5 -1.5q-20 -5 -50 -30q-31 -26 -61 -67q-1 0 -1.5 -1t-0.5 -2z" />
<glyph unicode="&#xe4;" horiz-adv-x="652" d="M642 219q15 14 37 4.5t29 -28t-6 -33.5q-148 -135 -249 -195q-88 -53 -143 -46q-37 4 -67 31t-41 64q-12 40 4 91q-33 -22 -83.5 -64.5t-96 -75t-91.5 -50.5q-26 -10 -54 20t-22 56q18 81 60 153t103 118q51 37 109 29.5t94 -55.5q14 6 29 9q16 5 38 -11q16 -10 27.5 -25 t11.5 -28q3 -9 -1 -15q-3 -27 -21 -78q-9 -24 -19 -78l1.5 0.5t2.5 0.5q68 8 175 77t173 129zM25 104q4 4 25 21.5t28.5 23.5t24 18.5t30 21.5t26.5 18h-1q-3 0 -9.5 -1.5t-10.5 -1.5q-20 -5 -50 -30q-31 -26 -61 -67q-1 0 -1.5 -1t-0.5 -2z" />
<glyph unicode="&#xe3;" horiz-adv-x="652" d="M642 219q15 14 37 4.5t29 -28t-6 -33.5q-148 -135 -249 -195q-88 -53 -143 -46q-37 4 -67 31t-41 64q-12 40 4 91q-33 -22 -83.5 -64.5t-96 -75t-91.5 -50.5q-26 -10 -54 20t-22 56q18 81 60 153t103 118q51 37 109 29.5t94 -55.5q14 6 29 9q16 5 38 -11q16 -10 27.5 -25 t11.5 -28q3 -9 -1 -15q-3 -27 -21 -78q-9 -24 -19 -78l1.5 0.5t2.5 0.5q68 8 175 77t173 129zM25 104q4 4 25 21.5t28.5 23.5t24 18.5t30 21.5t26.5 18h-1q-3 0 -9.5 -1.5t-10.5 -1.5q-20 -5 -50 -30q-31 -26 -61 -67q-1 0 -1.5 -1t-0.5 -2z" />
<glyph unicode="&#xe2;" horiz-adv-x="652" d="M642 219q15 14 37 4.5t29 -28t-6 -33.5q-148 -135 -249 -195q-88 -53 -143 -46q-37 4 -67 31t-41 64q-12 40 4 91q-33 -22 -83.5 -64.5t-96 -75t-91.5 -50.5q-26 -10 -54 20t-22 56q18 81 60 153t103 118q51 37 109 29.5t94 -55.5q14 6 29 9q16 5 38 -11q16 -10 27.5 -25 t11.5 -28q3 -9 -1 -15q-3 -27 -21 -78q-9 -24 -19 -78l1.5 0.5t2.5 0.5q68 8 175 77t173 129zM25 104q4 4 25 21.5t28.5 23.5t24 18.5t30 21.5t26.5 18h-1q-3 0 -9.5 -1.5t-10.5 -1.5q-20 -5 -50 -30q-31 -26 -61 -67q-1 0 -1.5 -1t-0.5 -2z" />
<glyph unicode="&#xe1;" horiz-adv-x="652" d="M642 219q15 14 37 4.5t29 -28t-6 -33.5q-148 -135 -249 -195q-88 -53 -143 -46q-37 4 -67 31t-41 64q-12 40 4 91q-33 -22 -83.5 -64.5t-96 -75t-91.5 -50.5q-26 -10 -54 20t-22 56q18 81 60 153t103 118q51 37 109 29.5t94 -55.5q14 6 29 9q16 5 38 -11q16 -10 27.5 -25 t11.5 -28q3 -9 -1 -15q-3 -27 -21 -78q-9 -24 -19 -78l1.5 0.5t2.5 0.5q68 8 175 77t173 129zM25 104q4 4 25 21.5t28.5 23.5t24 18.5t30 21.5t26.5 18h-1q-3 0 -9.5 -1.5t-10.5 -1.5q-20 -5 -50 -30q-31 -26 -61 -67q-1 0 -1.5 -1t-0.5 -2z" />
<glyph unicode="&#xe0;" horiz-adv-x="652" d="M642 219q15 14 37 4.5t29 -28t-6 -33.5q-148 -135 -249 -195q-88 -53 -143 -46q-37 4 -67 31t-41 64q-12 40 4 91q-33 -22 -83.5 -64.5t-96 -75t-91.5 -50.5q-26 -10 -54 20t-22 56q18 81 60 153t103 118q51 37 109 29.5t94 -55.5q14 6 29 9q16 5 38 -11q16 -10 27.5 -25 t11.5 -28q3 -9 -1 -15q-3 -27 -21 -78q-9 -24 -19 -78l1.5 0.5t2.5 0.5q68 8 175 77t173 129zM25 104q4 4 25 21.5t28.5 23.5t24 18.5t30 21.5t26.5 18h-1q-3 0 -9.5 -1.5t-10.5 -1.5q-20 -5 -50 -30q-31 -26 -61 -67q-1 0 -1.5 -1t-0.5 -2z" />
<glyph unicode="b" horiz-adv-x="439" d="M297 831q15 18 38.5 10t41.5 -33t9 -41q-137 -228 -245 -493q80 77 144 36q88 -56 41 -221q-19 -67 -66.5 -109.5t-112.5 -39.5q-26 1 -52 39q-26 37 -9 49q5 3 15 3q46 -2 80.5 28t51.5 78q5 16 14 76q-2 -1 -10 -7t-11 -8q-141 -130 -219 -300q-5 -17 -23 -14 q-25 2 -49.5 30t-15.5 49q145 479 378 868z" />
<glyph unicode="c" horiz-adv-x="534" d="M522 217q18 8 35.5 -4t18 -28.5t-19.5 -27.5l-306 -134q-7 -4 -33.5 -16t-39 -17t-37 -14t-40.5 -11t-37 -3t-39.5 4.5t-36.5 16.5q-24 15 -39.5 38.5t-19.5 49t-1.5 54t14 54.5t27.5 49.5t38 40t46 25.5t52 6t54 -19q19 -10 33.5 -27t13.5 -35q-2 -17 -16.5 -21t-28.5 5 q-19 13 -37 8.5t-32.5 -14.5t-27.5 -29t-21.5 -35t-14.5 -33q-8 -21 -6.5 -31.5t5 -13t7.5 -2.5q56 5 221.5 62t267.5 102z" />
<glyph unicode="d" horiz-adv-x="551" d="M678 978q22 -7 41 -29t16 -41q0 -4 -2 -7q-84 -166 -133 -265t-117.5 -246t-122.5 -279.5t-98 -263.5q-9 -27 -46 -4q-34 20 -42 50q-3 11 0 19q35 106 81 220q-142 -154 -311 -215q-26 -10 -54 20t-22 56q18 81 60 153t103 118q45 33 96 31t89 -37q10 12 18 23 q112 141 206 303t205 382l2 4q7 9 20 9q5 0 11 -1zM6 62q82 49 166 144q-3 1 -5 1q-3 -1 -10 -2t-10 -1q-20 -5 -50 -30q-30 -26 -61 -67q-16 -21 -30 -45z" />
<glyph unicode="e" horiz-adv-x="454" d="M444 214q24 19 52 -5q24 -20 16 -39q-3 -6 -9 -10q-16 -11 -66 -44t-72.5 -47.5t-68 -42t-75.5 -43.5t-70.5 -35t-77.5 -32q-105 -37 -155 29q-21 30 -22 67.5t15.5 74.5t37 67.5t44.5 56.5q21 23 45 41t52 30t57.5 7t53.5 -30q16 -17 21.5 -33.5t0 -32t-14.5 -29.5 t-27.5 -28.5t-34.5 -25.5t-39 -23t-38 -19t-35 -16t-26 -12q-8 -19 -13 -39q74 10 222.5 81.5t226.5 131.5z" />
<glyph unicode="&#xea;" horiz-adv-x="454" d="M444 214q24 19 52 -5q24 -20 16 -39q-3 -6 -9 -10q-16 -11 -66 -44t-72.5 -47.5t-68 -42t-75.5 -43.5t-70.5 -35t-77.5 -32q-105 -37 -155 29q-21 30 -22 67.5t15.5 74.5t37 67.5t44.5 56.5q21 23 45 41t52 30t57.5 7t53.5 -30q16 -17 21.5 -33.5t0 -32t-14.5 -29.5 t-27.5 -28.5t-34.5 -25.5t-39 -23t-38 -19t-35 -16t-26 -12q-8 -19 -13 -39q74 10 222.5 81.5t226.5 131.5z" />
<glyph unicode="&#xe9;" horiz-adv-x="454" d="M444 214q24 19 52 -5q24 -20 16 -39q-3 -6 -9 -10q-16 -11 -66 -44t-72.5 -47.5t-68 -42t-75.5 -43.5t-70.5 -35t-77.5 -32q-105 -37 -155 29q-21 30 -22 67.5t15.5 74.5t37 67.5t44.5 56.5q21 23 45 41t52 30t57.5 7t53.5 -30q16 -17 21.5 -33.5t0 -32t-14.5 -29.5 t-27.5 -28.5t-34.5 -25.5t-39 -23t-38 -19t-35 -16t-26 -12q-8 -19 -13 -39q74 10 222.5 81.5t226.5 131.5z" />
<glyph unicode="&#xe8;" horiz-adv-x="454" d="M444 214q24 19 52 -5q24 -20 16 -39q-3 -6 -9 -10q-16 -11 -66 -44t-72.5 -47.5t-68 -42t-75.5 -43.5t-70.5 -35t-77.5 -32q-105 -37 -155 29q-21 30 -22 67.5t15.5 74.5t37 67.5t44.5 56.5q21 23 45 41t52 30t57.5 7t53.5 -30q16 -17 21.5 -33.5t0 -32t-14.5 -29.5 t-27.5 -28.5t-34.5 -25.5t-39 -23t-38 -19t-35 -16t-26 -12q-8 -19 -13 -39q74 10 222.5 81.5t226.5 131.5z" />
<glyph unicode="f" horiz-adv-x="357" d="M222 68q31 -20 31 -52q0 -24 -21 -24q-14 1 -32 12q-40 27 -118 0q24 -34 33 -80.5t8 -86.5t-8 -94q-14 -115 -41.5 -200t-87.5 -152q-8 -7 -19 -6t-20 6q-34 21 -57.5 51t-36.5 60.5t-18 71t-4.5 74t7.5 78t13 74.5t16 72q60 249 224 502q14 13 36 3t38.5 -37t5.5 -45 q-62 -95 -110 -194q89 15 161 -33zM32 -137q1 0 2 11.5t1 15t1 15t0.5 17t-1 15.5t-2.5 16l-4.5 13.5t-6.5 13t-9 9.5q-17 -45 -29 -81q-41 -125 -54 -243q0 -1 -3 -24t-4.5 -36.5t-2.5 -36t1 -41t6 -32.5q61 83 87 224q11 63 18 144z" />
<glyph unicode="g" horiz-adv-x="593" d="M587 234q17 8 37 -8.5t22.5 -37t-16.5 -32.5q-217 -97 -379 -249q-116 -330 -265 -644q-11 -22 -30 -13.5t-36 26.5t-21 31q-21 55 -23.5 115t10 114t38 111t55 104.5t66.5 95.5q54 70 121 134q18 52 37 109q-28 -20 -76.5 -59t-90.5 -68.5t-85 -45.5q-26 -10 -54 20 t-22 56q18 81 60 153t103 118q53 39 113 29t95 -62q7 2 12 3q27 7 56 -21t21 -55q-4 -11 -10.5 -31t-7.5 -23q24 14 49.5 27t44 22.5t47.5 22.5t41 19t45.5 20.5t42.5 18.5zM39 101q4 4 19 16t21 16.5t19 15t21.5 16t20 13.5t22 14.5t21.5 12.5q-4 1 -9 2q-3 -1 -10 -2 t-10 -1q-20 -5 -50 -30q-31 -26 -61 -67q-1 -1 -2.5 -3t-1.5 -3zM-10 -469q14 32 35 82q-21 -42 -35 -82z" />
<glyph unicode="h" horiz-adv-x="805" d="M796 222q10 5 21.5 3t20 -10.5t13.5 -18.5t1.5 -21t-15.5 -18q-22 -12 -96 -57t-125.5 -71.5t-102.5 -43.5t-95.5 6.5t-49.5 77.5q-3 34 21 101q22 62 24 69q-207 -116 -368 -294q-6 -7 -16 -6t-19 5t-15 9q-27 21 -41 45.5t-15.5 53t4 54t16.5 59.5q52 149 117 292 q127 285 308 556q13 13 35.5 2.5t39 -37.5t4.5 -44q-150 -226 -264 -466q-58 -121 -106 -246q-21 -52 -41 -110q123 114 280 206q23 13 38 20t34 11t36.5 -2.5t35.5 -22.5q48 -45 29 -132q-4 -22 -19 -61t-18 -51q170 52 328 142z" />
<glyph unicode="i" horiz-adv-x="322" d="M310 212q23 19 50 -2q25 -18 15 -39q-2 -6 -7 -10q-88 -74 -174 -132q-3 -2 -16 -11t-17.5 -12l-16.5 -11t-18.5 -11.5t-17.5 -10t-19 -9.5t-18 -7.5t-20 -7.5t-19 -5q-49 -10 -90 27t-42 88q0 16 2.5 32.5t9 35t12 32.5t16.5 35t16.5 31t19 32t16.5 28q15 18 38.5 10 t41.5 -33t8 -42q-48 -84 -75 -154q-3 -9 -8 -22q52 9 153 63t160 105zM164 391q-8 -28 -44 -5q-34 20 -43 50q-3 11 -1 19q34 110 89 211q14 18 37.5 10t41.5 -33t9 -42q-55 -101 -89 -210z" />
<glyph unicode="&#xee;" horiz-adv-x="322" d="M310 212q23 19 50 -2q25 -18 15 -39q-2 -6 -7 -10q-88 -74 -174 -132q-3 -2 -16 -11t-17.5 -12l-16.5 -11t-18.5 -11.5t-17.5 -10t-19 -9.5t-18 -7.5t-20 -7.5t-19 -5q-49 -10 -90 27t-42 88q0 16 2.5 32.5t9 35t12 32.5t16.5 35t16.5 31t19 32t16.5 28q15 18 38.5 10 t41.5 -33t8 -42q-48 -84 -75 -154q-3 -9 -8 -22q52 9 153 63t160 105zM164 391q-8 -28 -44 -5q-34 20 -43 50q-3 11 -1 19q34 110 89 211q14 18 37.5 10t41.5 -33t9 -42q-55 -101 -89 -210z" />
<glyph unicode="&#xed;" horiz-adv-x="322" d="M310 212q23 19 50 -2q25 -18 15 -39q-2 -6 -7 -10q-88 -74 -174 -132q-3 -2 -16 -11t-17.5 -12l-16.5 -11t-18.5 -11.5t-17.5 -10t-19 -9.5t-18 -7.5t-20 -7.5t-19 -5q-49 -10 -90 27t-42 88q0 16 2.5 32.5t9 35t12 32.5t16.5 35t16.5 31t19 32t16.5 28q15 18 38.5 10 t41.5 -33t8 -42q-48 -84 -75 -154q-3 -9 -8 -22q52 9 153 63t160 105zM164 391q-8 -28 -44 -5q-34 20 -43 50q-3 11 -1 19q34 110 89 211q14 18 37.5 10t41.5 -33t9 -42q-55 -101 -89 -210z" />
<glyph unicode="&#xec;" horiz-adv-x="322" d="M310 212q23 19 50 -2q25 -18 15 -39q-2 -6 -7 -10q-88 -74 -174 -132q-3 -2 -16 -11t-17.5 -12l-16.5 -11t-18.5 -11.5t-17.5 -10t-19 -9.5t-18 -7.5t-20 -7.5t-19 -5q-49 -10 -90 27t-42 88q0 16 2.5 32.5t9 35t12 32.5t16.5 35t16.5 31t19 32t16.5 28q15 18 38.5 10 t41.5 -33t8 -42q-48 -84 -75 -154q-3 -9 -8 -22q52 9 153 63t160 105zM164 391q-8 -28 -44 -5q-34 20 -43 50q-3 11 -1 19q34 110 89 211q14 18 37.5 10t41.5 -33t9 -42q-55 -101 -89 -210z" />
<glyph unicode="j" horiz-adv-x="184" d="M-5 297q10 27 47 5q34 -21 42 -51q2 -10 -1 -19q-22 -56 -47 -114q12 -17 10 -32t-22 -16h-11q-72 -154 -162 -295q-69 -110 -149 -211q-2 -2 -16.5 -20.5t-18 -23t-17 -20t-20 -20.5t-19.5 -15.5t-23.5 -14.5t-24.5 -8.5t-28 -5.5q-20 -1 -41.5 18.5t-25.5 39.5 q-8 32 -5.5 68.5t7.5 67.5t19 66t28.5 63.5t35.5 60.5t40 57.5t42 53.5q32 40 62 72t69 65.5t82 56.5t87 31q33 72 60 141zM-218 -131q38 62 76 132q-59 -47 -135 -138q-148 -178 -168 -304q17 15 34 36t36.5 49t24.5 35q71 93 132 190zM153 650q17 13 43.5 -2.5t37.5 -38.5 t-1 -39q-73 -58 -95 -147q-6 -26 -41 -6q-34 20 -45 50q-4 12 -2 21q24 97 103 162z" />
<glyph unicode="k" horiz-adv-x="451" d="M336 951q14 18 37 10.5t41.5 -33t10.5 -42.5q-148 -300 -277 -611q94 79 156 52q19 -8 34.5 -30t10.5 -41q-18 -68 -64.5 -118.5t-112.5 -74.5q7 -48 37 -86.5t77 -58.5q26 -12 2 -48q-23 -33 -54 -39q-10 -2 -17 2q-66 29 -102.5 85t-37.5 125q-41 -56 -67 -116 q-6 -17 -27 -13q-24 5 -46.5 32t-14.5 46q183 490 414 959z" />
<glyph unicode="l" horiz-adv-x="398" d="M392 210q13 15 32.5 8.5t25 -23t-6.5 -33.5q-59 -64 -138.5 -115t-160.5 -76q-31 -9 -52.5 -12t-46.5 4t-43 29q-54 64 -33 165q7 36 18.5 72.5t32 93t24.5 70.5q42 122 86 243q91 246 196 497q11 28 48 5q34 -21 41 -51q3 -10 -1 -18q-115 -274 -212 -544 q-49 -136 -95 -271q-1 -5 -20 -53t-28.5 -84.5t-6.5 -64.5q88 13 194.5 64.5t145.5 93.5z" />
<glyph unicode="m" horiz-adv-x="963" d="M960 213q16 13 35.5 4.5t24 -25.5t-8.5 -31q-159 -128 -261 -186q-75 -42 -116 -44q-32 -1 -59.5 19t-36.5 51q-5 18 2 55v1v1q-8 -3 -11 -5l-48 -34q-16 -11 -47.5 -33.5t-47.5 -34.5q-20 -10 -40 -0.5t-34 32.5t-10 40q4 19 13 57.5t13 57.5q2 7 10 33q-5 -3 -19 -11.5 t-21 -12.5q-57 -31 -111 -69q-98 -68 -188 -158q-15 -12 -35 -3t-36 30t-14 35q18 136 79 252q14 18 37 10t41.5 -33t9.5 -42q-11 -22 -23 -48q123 95 254 155q43 19 83 -2.5t45 -70.5q3 -27 -13 -85q20 14 37 24q57 34 104 13q28 -12 47.5 -37.5t22.5 -54.5q1 -10 -1 -24 q41 10 151.5 67.5t171.5 106.5z" />
<glyph unicode="n" horiz-adv-x="690" d="M684 221q17 8 34.5 -4t18 -29.5t-19.5 -28.5q-89 -43 -255 -145q-11 -7 -38.5 -25t-44 -28.5t-41 -22t-45.5 -16.5q-44 -10 -78 23.5t-28 77.5q7 46 36 102q-147 -82 -257 -213q-8 -9 -19.5 -8.5t-24 10t-22 22t-15 26t-2.5 22.5q27 105 108 250q14 18 37.5 10t41.5 -33 t9 -42q-1 -1 -2 -3t-1 -3q116 80 250 122q19 5 40.5 -8.5t32 -36t-0.5 -39.5q-36 -59 -80 -148q68 34 197 91.5t169 76.5z" />
<glyph unicode="o" horiz-adv-x="316" d="M200 225q15 -139 -70 -246q-26 -34 -58 -51.5t-68.5 -12.5t-66.5 38q-33 37 -35.5 83t19 88.5t56.5 83.5t73 71t73 47q16 8 38.5 -7t34 -38.5t-0.5 -37.5q4 -9 5 -18zM84 111q16 34 22 72q-25 -22 -46 -48q-26 -33 -44 -69q-10 -22 -14 -35q-1 -2 -1.5 -5t-1 -8t-1.5 -8 q3 2 17 12t21 18q29 31 48 71z" />
<glyph unicode="&#xf6;" horiz-adv-x="316" d="M200 225q15 -139 -70 -246q-26 -34 -58 -51.5t-68.5 -12.5t-66.5 38q-33 37 -35.5 83t19 88.5t56.5 83.5t73 71t73 47q16 8 38.5 -7t34 -38.5t-0.5 -37.5q4 -9 5 -18zM84 111q16 34 22 72q-25 -22 -46 -48q-26 -33 -44 -69q-10 -22 -14 -35q-1 -2 -1.5 -5t-1 -8t-1.5 -8 q3 2 17 12t21 18q29 31 48 71z" />
<glyph unicode="&#xf5;" horiz-adv-x="316" d="M200 225q15 -139 -70 -246q-26 -34 -58 -51.5t-68.5 -12.5t-66.5 38q-33 37 -35.5 83t19 88.5t56.5 83.5t73 71t73 47q16 8 38.5 -7t34 -38.5t-0.5 -37.5q4 -9 5 -18zM84 111q16 34 22 72q-25 -22 -46 -48q-26 -33 -44 -69q-10 -22 -14 -35q-1 -2 -1.5 -5t-1 -8t-1.5 -8 q3 2 17 12t21 18q29 31 48 71z" />
<glyph unicode="&#xf4;" horiz-adv-x="316" d="M200 225q15 -139 -70 -246q-26 -34 -58 -51.5t-68.5 -12.5t-66.5 38q-33 37 -35.5 83t19 88.5t56.5 83.5t73 71t73 47q16 8 38.5 -7t34 -38.5t-0.5 -37.5q4 -9 5 -18zM84 111q16 34 22 72q-25 -22 -46 -48q-26 -33 -44 -69q-10 -22 -14 -35q-1 -2 -1.5 -5t-1 -8t-1.5 -8 q3 2 17 12t21 18q29 31 48 71z" />
<glyph unicode="&#xf3;" horiz-adv-x="316" d="M200 225q15 -139 -70 -246q-26 -34 -58 -51.5t-68.5 -12.5t-66.5 38q-33 37 -35.5 83t19 88.5t56.5 83.5t73 71t73 47q16 8 38.5 -7t34 -38.5t-0.5 -37.5q4 -9 5 -18zM84 111q16 34 22 72q-25 -22 -46 -48q-26 -33 -44 -69q-10 -22 -14 -35q-1 -2 -1.5 -5t-1 -8t-1.5 -8 q3 2 17 12t21 18q29 31 48 71z" />
<glyph unicode="&#xf2;" horiz-adv-x="316" d="M200 225q15 -139 -70 -246q-26 -34 -58 -51.5t-68.5 -12.5t-66.5 38q-33 37 -35.5 83t19 88.5t56.5 83.5t73 71t73 47q16 8 38.5 -7t34 -38.5t-0.5 -37.5q4 -9 5 -18zM84 111q16 34 22 72q-25 -22 -46 -48q-26 -33 -44 -69q-10 -22 -14 -35q-1 -2 -1.5 -5t-1 -8t-1.5 -8 q3 2 17 12t21 18q29 31 48 71z" />
<glyph unicode="p" horiz-adv-x="529" d="M390 329q33 -31 39 -77t-12 -86q-15 -40 -42 -80.5t-61.5 -76t-78.5 -57.5t-87 -22q-15 0 -32.5 15t-27.5 34q-137 -210 -235 -498q-10 -27 -46 -5q-34 21 -43 51q-2 10 0 19l135 396l135 396q9 28 46 5q34 -21 42 -51q3 -10 0 -18q-6 -17 -17.5 -52t-17.5 -52 q61 79 126 135q24 20 43 32t42.5 19t46.5 0.5t45 -27.5zM325 220q4 10 8 37q-6 -4 -11 -8q-11 -8 -29 -23q-55 -47 -111 -117q-33 -40 -65 -87q62 7 120.5 69t87.5 129z" />
<glyph unicode="q" horiz-adv-x="469" d="M280 247q22 9 52 -18t26 -51q1 -10 -6 -15q-73 -153 -134 -331q-38 -108 -53 -170q-1 -2 -6 -22t-7 -29t-6 -29t-4.5 -32.5t-0.5 -28.5t4 -28t11 -21q7 -8 10.5 -18t1.5 -21t-12 -16q-14 -7 -32.5 5t-31.5 28q-19 23 -29 51.5t-10.5 61.5t1.5 60.5t11.5 66.5t16 60.5 t18.5 58.5q4 12 6 17q44 137 94 258q-20 -15 -70.5 -57t-89 -68t-79.5 -42q-26 -10 -54 20t-22 56q18 81 60 153t103 118q51 37 109 29.5t94 -55.5q14 6 29 9zM51 104q4 3 25 21t28.5 24t24 18.5t30 21.5t26.5 18h-1q-3 0 -9.5 -1.5t-10.5 -1.5q-20 -5 -50 -30 q-31 -26 -61 -67q-1 0 -1.5 -1t-0.5 -2z" />
<glyph unicode="r" horiz-adv-x="415" d="M317 225q9 -14 5 -28.5t-21 -16.5q-23 -2 -48 27q-24 0 -85 -48q-35 -26 -70 -63q-73 -79 -116 -172q-13 -28 -50 -3q-34 22 -39 52q-2 9 1 16q13 36 53.5 140t61.5 161q9 17 26 13.5t36.5 -21t25.5 -35.5q142 109 220 -22z" />
<glyph unicode="s" horiz-adv-x="326" d="M314 229q11 4 22 -0.5t17.5 -14t9.5 -20.5t-2 -21.5t-17 -15.5q-98 -38 -176 -98q11 -38 6 -76q-6 -43 -33 -83t-65.5 -54.5t-82.5 19.5q-34 28 -42.5 60.5t6 65.5t40.5 63.5t64 61.5q-8 10 -24 27t-27.5 31.5t-19.5 30.5q-12 23 -14.5 50t4 50t27 37.5t50.5 12.5 q19 -1 36.5 -15t26.5 -31q7 -13 4 -29.5t-20 -15.5q-26 2 -34 -14t-2 -36t17 -34q6 -7 25 -28q38 18 79.5 33.5t77.5 27t47 16.5z" />
<glyph unicode="t" horiz-adv-x="236" d="M851 656q17 -9 32.5 -27t13.5 -35t-16.5 -21t-28.5 5q-60 32 -127.5 44.5t-160.5 18.5q-145 9 -293 7h-2h-3q-62 -138 -107 -254.5t-85 -251t-60 -270t-18 -268.5q1 -31 -33 -17q-33 13 -51 43q-6 11 -7 20q-3 242 61 483t181 510q-246 -13 -488 -60q-27 -5 -59 32 q-28 35 -16 50q3 5 11 6q299 58 595 67q39 87 110 234q13 27 50 4q34 -21 40 -50q2 -11 -2 -18q-50 -105 -79 -168q84 1 141.5 -0.5t134 -9t143 -26t123.5 -48.5z" />
<glyph unicode="u" horiz-adv-x="607" d="M601 217q9 9 20 9.5t20.5 -6.5t16 -16.5t6 -21t-9.5 -20.5q-4 -5 -13 -14q-42 -44 -66 -67.5t-63.5 -58t-74.5 -57.5q-16 -11 -29 -17.5t-29 -11.5t-32 -3t-32 11q-64 39 -52 127q1 1 1 3v3q-97 -88 -173 -134q-106 -64 -164 12q-21 28 -22 68.5t15 80.5t36 74.5t43 60.5 q16 13 39 1.5t38.5 -38t1.5 -42.5q-30 -35 -56 -97q-11 -25 -17 -44q30 15 79 54q38 28 76 62t88 80.5t72 67.5q13 11 29 5.5t29.5 -18.5t21.5 -30t4 -29q-26 -85 -42 -151q-1 -6 -3 -15q49 11 119.5 65t122.5 107z" />
<glyph unicode="&#xfb;" horiz-adv-x="607" d="M601 217q9 9 20 9.5t20.5 -6.5t16 -16.5t6 -21t-9.5 -20.5q-4 -5 -13 -14q-42 -44 -66 -67.5t-63.5 -58t-74.5 -57.5q-16 -11 -29 -17.5t-29 -11.5t-32 -3t-32 11q-64 39 -52 127q1 1 1 3v3q-97 -88 -173 -134q-106 -64 -164 12q-21 28 -22 68.5t15 80.5t36 74.5t43 60.5 q16 13 39 1.5t38.5 -38t1.5 -42.5q-30 -35 -56 -97q-11 -25 -17 -44q30 15 79 54q38 28 76 62t88 80.5t72 67.5q13 11 29 5.5t29.5 -18.5t21.5 -30t4 -29q-26 -85 -42 -151q-1 -6 -3 -15q49 11 119.5 65t122.5 107z" />
<glyph unicode="&#xfa;" horiz-adv-x="607" d="M601 217q9 9 20 9.5t20.5 -6.5t16 -16.5t6 -21t-9.5 -20.5q-4 -5 -13 -14q-42 -44 -66 -67.5t-63.5 -58t-74.5 -57.5q-16 -11 -29 -17.5t-29 -11.5t-32 -3t-32 11q-64 39 -52 127q1 1 1 3v3q-97 -88 -173 -134q-106 -64 -164 12q-21 28 -22 68.5t15 80.5t36 74.5t43 60.5 q16 13 39 1.5t38.5 -38t1.5 -42.5q-30 -35 -56 -97q-11 -25 -17 -44q30 15 79 54q38 28 76 62t88 80.5t72 67.5q13 11 29 5.5t29.5 -18.5t21.5 -30t4 -29q-26 -85 -42 -151q-1 -6 -3 -15q49 11 119.5 65t122.5 107z" />
<glyph unicode="&#xf9;" horiz-adv-x="607" d="M601 217q9 9 20 9.5t20.5 -6.5t16 -16.5t6 -21t-9.5 -20.5q-4 -5 -13 -14q-42 -44 -66 -67.5t-63.5 -58t-74.5 -57.5q-16 -11 -29 -17.5t-29 -11.5t-32 -3t-32 11q-64 39 -52 127q1 1 1 3v3q-97 -88 -173 -134q-106 -64 -164 12q-21 28 -22 68.5t15 80.5t36 74.5t43 60.5 q16 13 39 1.5t38.5 -38t1.5 -42.5q-30 -35 -56 -97q-11 -25 -17 -44q30 15 79 54q38 28 76 62t88 80.5t72 67.5q13 11 29 5.5t29.5 -18.5t21.5 -30t4 -29q-26 -85 -42 -151q-1 -6 -3 -15q49 11 119.5 65t122.5 107z" />
<glyph unicode="v" horiz-adv-x="377" d="M210 346q10 27 47 5q34 -21 41 -51q3 -10 0 -18q-45 -116 -106 -214q-33 -53 -69 -98q0 -1 -6 -8t-7.5 -8.5t-6.5 -8t-7.5 -8.5t-8 -6.5t-9 -6.5t-9 -4t-10.5 -3q-32 -6 -56 14.5t-34 50t-11 58.5q-2 116 46 231q11 27 48 4q34 -21 41 -50q2 -11 -1 -19q-25 -59 -35 -116 q-5 -28 -6 -34q13 20 13 21q32 42 58 86q48 81 88 183z" />
<glyph unicode="w" horiz-adv-x="644" d="M464 374q7 26 42 6t45 -51q4 -11 1 -20q-33 -119 -93 -220q-2 -3 -13.5 -23t-16.5 -28t-17 -26t-20.5 -27t-21 -20.5t-25.5 -17t-27 -7.5q-45 -6 -79 31t-36 83q-1 29 2 63q-31 -31 -86 -88q-5 -5 -21 -22t-25.5 -26.5t-26.5 -24t-30 -21.5t-30.5 -12t-33.5 -2 q-44 7 -64 50t-8 87q27 97 116 202q16 12 39.5 1t38.5 -38t2 -43q-46 -53 -74 -107l-6 -12q15 14 39.5 41.5t32.5 34.5l175 180q18 13 38 2.5t35 -35t11 -39.5q-16 -74 -24 -136q0 -2 -5 -26.5t-6 -39.5q39 35 96 140q47 88 76 191z" />
<glyph unicode="x" horiz-adv-x="481" d="M297 304q17 12 44 -3.5t37.5 -38.5t-1.5 -38l-199 -150q75 -76 170 -101q26 -7 4 -41q-22 -33 -54 -43q-11 -3 -19 -1q-108 29 -191 118q-24 -18 -71 -53.5t-71 -53.5q-17 -13 -43.5 3t-37.5 39t2 37q42 32 157 119q-40 81 -34 161q2 26 40 50t50 8q4 -6 3 -16 q-5 -68 29 -136q31 23 93 69.5t92 70.5z" />
<glyph unicode="y" horiz-adv-x="739" d="M726 221q17 9 37.5 -3.5t25 -31t-14.5 -32.5q-194 -116 -429 -346q-135 -279 -323 -526q-16 -20 -46.5 5.5t-36.5 46.5q-21 74 5.5 145t84.5 147q69 91 185 209q23 24 48 49q59 121 106 249q-57 -46 -114 -84q-30 -20 -44.5 -29t-43 -25.5t-48 -22t-45.5 -11t-51 -2 t-51 15.5q-16 7 -31.5 26t-14.5 36q12 137 97 243q15 12 38.5 1t38.5 -37.5t2 -43.5q-55 -68 -75 -151q31 7 88 40q54 32 119 80q109 80 210 181q12 12 27.5 6.5t29.5 -18.5t22 -30.5t5 -29.5q-32 -109 -74 -220q28 23 66 47.5t66.5 40t74.5 40t66 35.5z" />
<glyph unicode="&#xfd;" horiz-adv-x="739" d="M726 221q17 9 37.5 -3.5t25 -31t-14.5 -32.5q-194 -116 -429 -346q-135 -279 -323 -526q-16 -20 -46.5 5.5t-36.5 46.5q-21 74 5.5 145t84.5 147q69 91 185 209q23 24 48 49q59 121 106 249q-57 -46 -114 -84q-30 -20 -44.5 -29t-43 -25.5t-48 -22t-45.5 -11t-51 -2 t-51 15.5q-16 7 -31.5 26t-14.5 36q12 137 97 243q15 12 38.5 1t38.5 -37.5t2 -43.5q-55 -68 -75 -151q31 7 88 40q54 32 119 80q109 80 210 181q12 12 27.5 6.5t29.5 -18.5t22 -30.5t5 -29.5q-32 -109 -74 -220q28 23 66 47.5t66.5 40t74.5 40t66 35.5z" />
<glyph unicode="z" horiz-adv-x="648" d="M639 227q11 4 22 0.5t18 -13t10.5 -20t-1 -21.5t-16.5 -16q-197 -82 -330 -190q15 -64 -2 -150q-21 -106 -82 -217q-28 -50 -60 -94q-1 -2 -14 -20.5t-18.5 -25.5t-16.5 -18.5t-21 -18.5q-35 -23 -72 5.5t-50 68.5q-28 93 18 228q49 142 169 261q-20 -1 -39 6 q-13 5 -31 21.5t-26 35.5t13 31q58 32 100 84q22 29 36 59q2 2 6 18q-77 -8 -183 -76q-18 -11 -45 5t-37 38.5t2 35.5q37 23 74 41.5t84 34.5t90.5 12t73.5 -30q37 -32 39.5 -75t-18 -80.5t-57.5 -75.5l10 -6q46 26 99 51.5t81.5 38t94 39.5t79.5 33zM234 -186q13 39 19 71 q-72 -75 -111 -153q-25 -51 -41 -107q-12 -45 -13 -82q5 7 12.5 17t8.5 11q32 42 57 86q42 74 68 157z" />
<glyph unicode="&#xad;" />
<glyph unicode="&#x2000;" horiz-adv-x="574" />
<glyph unicode="&#x2001;" horiz-adv-x="1148" />
<glyph unicode="&#x2002;" horiz-adv-x="574" />
<glyph unicode="&#x2003;" horiz-adv-x="1148" />
<glyph unicode="&#x2004;" horiz-adv-x="382" />
<glyph unicode="&#x2005;" horiz-adv-x="287" />
<glyph unicode="&#x2006;" horiz-adv-x="191" />
<glyph unicode="&#x2007;" horiz-adv-x="191" />
<glyph unicode="&#x2008;" horiz-adv-x="143" />
<glyph unicode="&#x2009;" horiz-adv-x="229" />
<glyph unicode="&#x200a;" horiz-adv-x="63" />
<glyph unicode="&#x202f;" horiz-adv-x="229" />
<glyph unicode="&#x205f;" horiz-adv-x="287" />
<glyph unicode="&#x25fc;" horiz-adv-x="320" d="M0 320h320v-320h-320v320z" />
</font>
</defs>
</svg>
