<?xml version="1.0" encoding="UTF-8"?>
<svg id="Layer_1" xmlns="http://www.w3.org/2000/svg" version="1.1" viewBox="0 0 500 221">
  <!-- Generator: Adobe Illustrator 29.3.1, SVG Export Plug-In . SVG Version: 2.1.0 Build 151)  -->
  <defs>
    <style>
      .st0 {
        fill: #fff;
      }
    </style>
  </defs>
  <g>
    <path class="st0" d="M227.9,87.38c-1.93-1.47-4.63-2.22-8.05-2.22-2.78,0-5.36.64-7.66,1.89-2.27,1.24-4.24,2.92-5.85,4.99-1.6,2.06-2.85,4.45-3.73,7.12-.88,2.66-1.32,5.48-1.32,8.38,0,1.87.27,3.68.8,5.36.54,1.72,1.37,3.23,2.46,4.48,1.1,1.27,2.49,2.27,4.13,2.96,1.62.69,3.51,1.04,5.63,1.04,2.87,0,5.5-.39,7.82-1.15,2.34-.77,4.47-1.88,6.32-3.32l.88-.68-3.34-5.43-1.06.72c-.64.43-1.38.87-2.18,1.29-.78.42-1.62.78-2.5,1.09s-1.81.57-2.77.76c-.94.18-1.9.28-2.87.28-1.03,0-1.92-.18-2.63-.54-.71-.36-1.27-.87-1.73-1.56-.49-.73-.86-1.64-1.09-2.71-.25-1.13-.38-2.37-.38-3.69v-.49c1.34-.03,2.72-.09,4.11-.18,1.79-.11,3.54-.32,5.21-.61,1.7-.29,3.31-.71,4.8-1.22,1.54-.53,2.92-1.24,4.08-2.09,1.21-.89,2.18-1.98,2.89-3.26.72-1.3,1.09-2.84,1.09-4.58,0-2.86-1.03-5.09-3.06-6.64ZM209.76,100.51c.22-.78.51-1.56.84-2.33.54-1.26,1.26-2.41,2.11-3.42.84-.99,1.83-1.81,2.95-2.43,1.06-.59,2.29-.89,3.64-.89,1.53,0,2.67.28,3.4.84.65.51.95,1.22.95,2.26,0,.78-.17,1.42-.52,1.98-.37.59-.91,1.11-1.58,1.53-.73.47-1.61.86-2.6,1.17-1.04.33-2.17.59-3.33.78-1.18.19-2.43.33-3.69.41-.73.04-1.46.08-2.17.11Z"/>
    <path class="st0" d="M255.34,85.15c-1.3,0-2.54.11-3.68.31-1.14.2-2.23.48-3.24.82s-1.99.75-2.9,1.22c-.18.09-.36.19-.54.28.02-.29.03-.57.04-.83l.06-1.28h-7.05l-.09,1.12c-.04.48-.1,1.12-.18,1.91-.08.77-.18,1.53-.29,2.24l-5.19,29.92h7.28l4.62-26.73c.61-.32,1.23-.63,1.85-.91.78-.35,1.6-.66,2.42-.92.81-.25,1.69-.44,2.6-.58.92-.13,1.93-.2,2.99-.2.54,0,1.04.08,1.49.24.42.16.78.38,1.09.68.31.3.56.69.75,1.17.19.49.29,1.09.29,1.81,0,.22-.01.46-.04.71-.03.28-.06.57-.09.81l-4.13,23.92h7.28l4.14-23.88c.09-.47.16-.94.19-1.39.03-.44.04-.88.04-1.29,0-2.82-.84-5.07-2.51-6.69-1.66-1.62-4.08-2.44-7.21-2.44Z"/>
    <path class="st0" d="M299.18,89.18c-1.16-1.27-2.61-2.27-4.3-2.97-1.68-.69-3.63-1.05-5.81-1.05-2.02,0-3.94.29-5.71.87-1.76.57-3.41,1.37-4.88,2.38-1.47,1.01-2.81,2.23-3.96,3.62-1.15,1.38-2.14,2.91-2.93,4.55-.79,1.63-1.41,3.37-1.82,5.19-.41,1.81-.62,3.68-.62,5.56,0,2.11.29,4.03.87,5.74.59,1.76,1.5,3.27,2.71,4.51,1.21,1.24,2.73,2.19,4.52,2.84,1.76.63,3.81.95,6.1.95,1.93,0,3.78-.31,5.49-.92,1.69-.6,3.27-1.43,4.71-2.48,1.43-1.04,2.72-2.29,3.84-3.7,1.11-1.4,2.07-2.93,2.84-4.56.77-1.62,1.37-3.33,1.78-5.08.42-1.76.62-3.55.62-5.32,0-2.02-.28-3.91-.85-5.61-.58-1.74-1.46-3.27-2.61-4.53ZM281.03,114.47c-.86-.4-1.62-.97-2.27-1.69-.66-.74-1.18-1.62-1.57-2.63s-.58-2.1-.58-3.26c0-2.24.31-4.35.92-6.26.61-1.89,1.46-3.54,2.52-4.91,1.04-1.34,2.28-2.4,3.69-3.15,1.39-.74,2.92-1.12,4.54-1.12,1.22,0,2.26.22,3.1.64.85.43,1.56,1.01,2.11,1.73.57.74.99,1.63,1.27,2.64.29,1.06.44,2.19.44,3.34s-.13,2.44-.37,3.68c-.24,1.24-.62,2.44-1.09,3.58-.48,1.13-1.07,2.21-1.76,3.2-.67.97-1.44,1.82-2.28,2.53-.83.7-1.76,1.26-2.76,1.66-1.85.74-4.11.84-5.92,0Z"/>
    <path class="st0" d="M335.76,89.03c-.97-1.21-2.21-2.17-3.71-2.85-1.48-.68-3.24-1.02-5.26-1.02s-4.13.28-6.03.84c-1.17.34-2.28.76-3.35,1.23v-1.56h-6.73v1.23c0,.24-.02.58-.06,1.02-.04.47-.09.96-.15,1.44-.06.49-.12.94-.17,1.34-.05.33-.09.56-.12.67l-7.49,43.21h7.28l2.73-15.44c.23.14.47.27.69.39.73.4,1.47.74,2.19,1.02.75.28,1.53.48,2.33.62.79.13,1.67.2,2.63.2,2.75,0,5.28-.64,7.52-1.92,2.2-1.26,4.1-2.97,5.64-5.11,1.52-2.11,2.71-4.58,3.53-7.36.82-2.76,1.23-5.71,1.23-8.76,0-1.78-.21-3.46-.63-5.01-.43-1.6-1.14-3.01-2.09-4.2ZM325.01,91.7c1.23,0,2.23.17,2.98.52.73.34,1.29.79,1.72,1.38.44.61.75,1.36.93,2.21.19.94.29,2.01.29,3.17s-.1,2.46-.31,3.72c-.2,1.26-.51,2.49-.93,3.68-.42,1.18-.94,2.31-1.55,3.34-.59,1-1.31,1.89-2.12,2.65-.79.74-1.69,1.33-2.68,1.76-1.36.59-2.93.75-4.86.53-.54-.06-1.11-.18-1.71-.37-.58-.18-1.19-.43-1.79-.75-.42-.23-.83-.5-1.24-.83l3.32-19.15c.6-.29,1.17-.55,1.69-.77.64-.27,1.28-.48,1.89-.64.63-.16,1.29-.27,1.97-.35.69-.07,1.49-.11,2.37-.11Z"/>
    <path class="st0" d="M372.12,85.93c-.83-.14-1.72-.27-2.62-.39-.91-.11-1.78-.21-2.62-.28-.87-.07-1.54-.11-2.07-.11-3.87,0-7.26.62-10.08,1.84-2.83,1.23-5.19,2.89-7.03,4.94-1.83,2.05-3.21,4.44-4.08,7.12-.87,2.64-1.31,5.44-1.31,8.32,0,2.31.33,4.34.97,6.06.65,1.73,1.53,3.2,2.61,4.37,1.1,1.19,2.41,2.09,3.87,2.68,1.44.58,2.98.88,4.56.88,1.13,0,2.24-.11,3.32-.33,1.12-.23,2.19-.61,3.19-1.16.94-.51,1.83-1.17,2.66-1.98,0,.22,0,.44.01.65.01.39.03.77.05,1.14l.06,1.16h7.36l-.26-1.44c-.06-.32-.11-.66-.14-1.02-.04-.34-.06-.77-.06-1.28,0-.66.03-1.42.07-2.24.05-.83.12-1.7.21-2.57.09-.87.19-1.74.31-2.59.12-.86.24-1.64.36-2.34l3.74-20.64-1.03-.33c-.5-.16-1.17-.31-2.05-.46ZM361.15,112.38c-.79.78-1.69,1.41-2.68,1.87-.95.44-1.98.67-3.07.67-.76,0-1.43-.19-2.07-.57-.67-.4-1.26-.96-1.74-1.67-.51-.74-.91-1.64-1.19-2.67-.29-1.05-.44-2.23-.44-3.51,0-2.64.39-4.96,1.17-6.89.78-1.93,1.79-3.56,3.02-4.83,1.22-1.27,2.61-2.23,4.13-2.86,1.53-.63,3.08-.95,4.61-.95,1.09,0,2.04.1,2.82.29.45.11.87.24,1.25.39l-2.64,14.58c-.2,1.18-.58,2.32-1.13,3.36-.56,1.06-1.24,1.99-2.03,2.78Z"/>
    <path class="st0" d="M398.65,111.68c-1.47.94-2.97,1.67-4.45,2.16-1.61.53-3.4.8-5.34.8-.53,0-1.03-.08-1.51-.25-.44-.16-.83-.38-1.16-.69-.33-.31-.58-.68-.78-1.16-.19-.48-.3-1.08-.3-1.76,0-.18.01-.38.03-.57.02-.21.04-.43.08-.64l4.16-23.89h-7.28l-4.15,23.84c-.15.89-.23,1.82-.23,2.76,0,1.27.18,2.47.53,3.56.37,1.14.96,2.14,1.75,2.97.79.83,1.81,1.48,3.03,1.93,1.17.43,2.57.65,4.17.65,1.09,0,2.17-.09,3.19-.26s2.06-.44,3.07-.79c.99-.35,2.02-.78,3.04-1.28.37-.18.74-.37,1.13-.58-.01.26-.02.5-.02.72,0,.18,0,.32.03.46v1.23h7.33v-1.23c0-.74.02-1.47.06-2.14.03-.66.11-1.3.23-1.92l5.19-29.89h-7.28l-4.51,26.01Z"/>
    <path class="st0" d="M424.25,92.31c.6-.34,1.29-.61,2.06-.77,1.64-.35,3.29-.31,4.42-.07.57.12,1.1.29,1.57.52.48.23.94.53,1.37.87.47.37.96.82,1.47,1.33l.87.86,4.82-4.77-.77-.87c-1.41-1.59-3.06-2.72-4.9-3.35-1.77-.61-3.78-.92-5.99-.92-1.61,0-3.24.21-4.85.62-1.64.42-3.14,1.07-4.46,1.94-1.37.89-2.48,2.06-3.32,3.47-.86,1.44-1.29,3.18-1.29,5.17,0,1.47.31,2.74.92,3.8.58.99,1.31,1.84,2.16,2.53.82.66,1.71,1.21,2.67,1.64.88.39,1.7.73,2.36.97.15.07.44.18.87.35l1.32.52c.47.18.91.35,1.32.51l.85.32c.45.17.92.37,1.39.61.4.19.76.44,1.07.74.31.29.55.63.75,1.02.17.36.26.81.26,1.37,0,.67-.16,1.25-.48,1.76-.36.56-.83,1.02-1.43,1.4-.64.41-1.38.72-2.22.94-1.59.42-3.39.45-4.76.08-.63-.17-1.23-.43-1.78-.76-.58-.35-1.15-.79-1.69-1.31-.58-.54-1.17-1.19-1.76-1.92l-.81-.99-5.41,4.8.79.92c.77.89,1.57,1.7,2.38,2.39.84.72,1.77,1.33,2.76,1.83,1,.49,2.1.88,3.28,1.13,1.16.25,2.47.38,3.88.38,1.7,0,3.41-.23,5.08-.68,1.71-.46,3.26-1.18,4.63-2.13,1.39-.98,2.54-2.23,3.4-3.71.89-1.52,1.33-3.31,1.33-5.32,0-1.4-.23-2.63-.68-3.65-.44-1.01-1.05-1.88-1.78-2.6-.72-.69-1.53-1.27-2.44-1.73-.83-.42-1.68-.79-2.53-1.11l-2.16-.81c-.63-.23-1.34-.49-2.15-.78-.6-.21-1.19-.44-1.76-.71-.52-.24-.98-.52-1.38-.83-.36-.28-.63-.59-.83-.94-.17-.29-.26-.64-.26-1.05,0-.72.16-1.29.48-1.75.36-.52.81-.93,1.38-1.26Z"/>
    <path class="st0" d="M454.38,72.15c-.63,0-1.23.12-1.78.36-.54.23-1.03.56-1.45.96-.42.41-.76.89-1.01,1.44-.26.56-.38,1.17-.38,1.81,0,.96.33,1.81.98,2.53.67.75,1.59,1.15,2.64,1.15.64,0,1.26-.13,1.83-.4.56-.26,1.05-.61,1.46-1.04.41-.43.72-.93.95-1.48.23-.57.36-1.16.36-1.76,0-.94-.33-1.8-.94-2.48-.45-.49-1.27-1.08-2.65-1.08Z"/>
    <polygon class="st0" points="442.53 120.85 449.81 120.85 455.9 85.67 448.62 85.67 442.53 120.85"/>
    <path class="st0" d="M490.45,86.39c-.51-.16-1.18-.31-2.06-.46-.83-.14-1.72-.27-2.62-.39-.91-.11-1.78-.21-2.62-.28-.87-.07-1.54-.11-2.07-.11-3.87,0-7.26.62-10.08,1.84-2.82,1.23-5.19,2.89-7.03,4.94-1.83,2.05-3.21,4.44-4.09,7.12-.86,2.64-1.3,5.44-1.3,8.32,0,2.31.32,4.34.97,6.06.64,1.73,1.53,3.2,2.61,4.37,1.09,1.19,2.4,2.09,3.87,2.68,1.44.58,2.98.88,4.56.88,1.13,0,2.25-.11,3.32-.33,1.12-.23,2.19-.61,3.19-1.16.94-.51,1.84-1.17,2.66-1.98,0,.22,0,.44.01.65.01.39.03.77.05,1.14l.06,1.16h7.36l-.26-1.44c-.06-.32-.1-.66-.14-1.02-.04-.34-.06-.77-.06-1.28,0-.66.03-1.42.07-2.24.05-.83.12-1.7.21-2.57.09-.87.19-1.74.31-2.59.12-.86.24-1.64.36-2.34l3.74-20.64-1.03-.33ZM477.43,112.38c-.79.78-1.69,1.41-2.68,1.87-.95.44-1.98.67-3.07.67-.75,0-1.43-.19-2.07-.57-.67-.4-1.26-.96-1.74-1.67-.51-.74-.91-1.64-1.19-2.67-.29-1.05-.44-2.23-.44-3.51,0-2.64.39-4.96,1.17-6.89.78-1.93,1.79-3.56,3.02-4.83,1.22-1.27,2.61-2.23,4.13-2.86,1.53-.63,3.08-.95,4.61-.95,1.09,0,2.04.1,2.82.29.45.11.87.24,1.26.39l-2.65,14.58c-.2,1.18-.58,2.32-1.13,3.36-.56,1.06-1.24,1.99-2.03,2.78Z"/>
  </g>
  <path class="st0" d="M194.64,95.08c-4.64,15.71-16.21,47.25-5.11,60.94,4.47,5.22,11.23,6.81,18.27,7.63,2.42.23,2.63,3.85.11,4.24-11.91,1.93-24.32-1.64-30.11-13.07-5.2-10.24-4.68-22.34-3.14-33.25,1.53-10.13,4.21-19.7,7.45-28.99-16.23,35.46-30.77,71.75-48.79,106.46-1.9,3.51-3.88,7.04-6.14,10.42-1.46,2.14-3.12,4.48-5.33,6.23-2.79,2.29-7.08,2.77-9.98.35-4.67-4.01-3.14-10.95-2.46-16.23.88-5.37,2.06-10.43,3.29-15.49,12.63-49.73,30.57-97.52,43.37-147.05,1.24-4.89,2.37-9.81,3.27-14.66.17-1.05.36-2.12.53-3.18-.53.79-1.06,1.58-1.58,2.36-8.08,12.72-14.88,26.36-21.66,39.91-13.61,27.42-26.42,55.37-40.39,82.68-4.8,9.21-9.56,18.33-14.99,27.26-2.12,3.46-4.34,6.95-6.93,10.22-1.64,2.01-3.46,4.06-5.87,5.39-3.58,2.14-8.78,1.27-11.07-2.28-3.36-5.11-.93-11.82.39-16.99,1.54-5.19,3.31-10.07,5.11-14.93,7.05-19.12,15.46-37.77,21.82-57.03.44-1.47.91-2.94,1.35-4.43-2.69,3.93-5.31,8.27-8.04,12.54-11.02,17.66-25.27,34.76-44.19,44.47-9.47,4.96-19.82,8.04-30.27,9.39-3.94.43-4.99-5.37-.92-6.19,31.53-5.06,52.09-25.82,67.39-52.59,2.6-4.34,5.05-8.78,7.96-13.32,2.49-3.73,5.77-8.78,10.86-10.16,3.43-1.08,7.21.78,8.42,3.98,1.01,2.54.84,4.97.58,7.41-.52,4.16-1.58,8.14-2.67,12.06-1.44,5.07-3.05,9.99-4.7,14.88-3.91,11.8-8.32,23.46-12.43,35.18,2.02-3.72,4.01-7.48,6.02-11.24,19.18-36.13,37.19-72.88,57.42-108.54,4.02-6.82,7.91-13.7,12.94-20.02,1.63-1.89,3.24-3.89,5.83-5.25,2.87-1.61,7.01-.99,8.93,2.04,3.04,4.8,1.08,13.01.32,18.21-1.93,10.28-4.48,20.23-7.14,30.27-9.2,34.63-19.63,68.86-29.36,103.28-2.79,9.78-5.51,19.59-7.93,29.35-.1.42-.2.84-.3,1.26,15.42-29.43,29.51-61.93,43.66-91.98,6.54-13.95,13.02-27.95,20.23-41.63,2.58-4.77,4.99-9.29,8.27-13.82,1.79-2.41,4.28-5.28,7.64-5.5,2.54-.31,5.42,1.39,6.32,3.81.86,1.77.64,4.17.39,5.74-1.44,7.31-4.43,14.24-6.73,21.08-3.45,9.64-6.78,19.21-9.86,28.77Z"/>
  <g>
    <path class="st0" d="M293.8,155.33c.58-.33,1.25-.59,1.98-.74,1.58-.34,3.18-.3,4.27-.07.55.12,1.05.29,1.51.51.46.22.9.5,1.32.84.45.36.93.79,1.42,1.29l.86.86,4.72-4.67-.77-.87c-1.37-1.54-2.97-2.64-4.76-3.25-1.72-.59-3.67-.89-5.81-.89-1.56,0-3.14.2-4.7.59-1.59.4-3.05,1.04-4.33,1.88-1.32.87-2.41,2.01-3.22,3.37-.84,1.4-1.26,3.09-1.26,5.03,0,1.43.3,2.67.9,3.7.56.97,1.27,1.8,2.09,2.46.8.64,1.67,1.18,2.59,1.59.86.38,1.65.71,2.29.95.14.06.42.17.84.34l1.28.5c.46.18.88.34,1.28.49l.82.31c.43.16.88.36,1.34.58.38.19.73.43,1.03.71.29.28.52.6.72.98.17.33.25.77.25,1.3,0,.65-.15,1.2-.47,1.68-.35.54-.79.98-1.37,1.34-.61.39-1.33.69-2.13.91-1.53.4-3.28.44-4.59.08-.6-.16-1.18-.41-1.72-.73-.56-.33-1.1-.76-1.63-1.26-.55-.53-1.13-1.15-1.7-1.85l-.81-.99-5.29,4.7.78.92c.75.87,1.52,1.65,2.31,2.32.81.7,1.72,1.29,2.68,1.78.97.49,2.04.86,3.18,1.1,1.13.24,2.39.36,3.76.36,1.65,0,3.3-.22,4.93-.66,1.66-.45,3.17-1.14,4.49-2.07,1.35-.95,2.46-2.16,3.3-3.6.86-1.48,1.3-3.21,1.3-5.17,0-1.36-.22-2.55-.66-3.55-.43-.98-1.02-1.83-1.74-2.53-.69-.67-1.49-1.23-2.37-1.68-.81-.41-1.64-.77-2.46-1.08l-2.09-.78c-.61-.23-1.3-.48-2.08-.76-.58-.2-1.15-.43-1.7-.69-.5-.23-.94-.5-1.33-.81-.34-.27-.6-.56-.8-.9-.16-.28-.24-.61-.24-.99,0-.69.15-1.24.45-1.67.35-.5.78-.9,1.32-1.21Z"/>
    <path class="st0" d="M326.46,139.23c0-.92-.32-1.76-.92-2.43-.44-.48-1.25-1.06-2.59-1.06-.61,0-1.2.12-1.74.35-.53.23-1,.54-1.41.94-.41.4-.75.87-.99,1.41-.25.55-.37,1.14-.37,1.77,0,.94.32,1.77.96,2.48.66.74,1.56,1.13,2.59,1.13.63,0,1.23-.13,1.79-.39.54-.25,1.02-.6,1.42-1.02.39-.42.7-.9.93-1.44.23-.55.34-1.13.34-1.72Z"/>
    <polygon class="st0" points="311.42 182.97 318.55 182.97 324.46 148.83 317.34 148.83 311.42 182.97"/>
    <path class="st0" d="M348.15,148.33c-1.26,0-2.46.1-3.57.3-1.1.2-2.16.46-3.14.79-.98.33-1.93.73-2.81,1.19-.15.08-.31.16-.46.24.01-.25.03-.5.04-.74l.06-1.28h-6.9l-.1,1.12c-.04.46-.1,1.08-.17,1.84-.08.75-.17,1.48-.28,2.17l-5.03,29.01h7.13l4.47-25.9c.59-.31,1.18-.6,1.77-.87.76-.34,1.54-.64,2.34-.89.78-.24,1.63-.43,2.51-.56.89-.13,1.86-.19,2.89-.19.52,0,1,.08,1.43.24.4.15.75.36,1.04.65.3.29.53.66.71,1.12.19.47.28,1.05.28,1.73,0,.22-.01.44-.04.68-.03.27-.06.55-.09.78l-4,23.21h7.13l4.02-23.15c.09-.45.15-.91.18-1.36.03-.43.05-.85.05-1.25,0-2.74-.82-4.93-2.44-6.51-1.61-1.58-3.97-2.37-7.01-2.37Z"/>
    <path class="st0" d="M376.16,140.82h-7.13l-1.41,8.21-4.53.96-1.23,5.32h4.66l-3.12,18.06c-.21,1.11-.31,2.18-.31,3.19s.13,1.87.4,2.68c.29.89.78,1.67,1.45,2.3.66.62,1.5,1.11,2.52,1.45.97.32,2.17.49,3.54.49.25,0,.62-.01,1.11-.05.49-.03,1.01-.09,1.57-.17.55-.08,1.1-.18,1.66-.29.6-.12,1.15-.27,1.62-.45l.71-.27.61-6.42-1.82.66c-.09.03-.31.1-.79.2-.41.08-.86.16-1.33.24-.47.07-.91.14-1.34.18-.48.05-.76.07-.9.07-.37,0-1.02-.05-1.25-.36-.26-.35-.39-.97-.39-1.78,0-.49.02-.92.05-1.27.04-.37.09-.75.16-1.16l2.99-17.29h7.1l1.94-6.48h-7.91l1.38-8.01Z"/>
    <path class="st0" d="M412.12,152.24c-1.13-1.23-2.53-2.21-4.18-2.89-1.63-.68-3.52-1.02-5.63-1.02-1.96,0-3.82.28-5.54.84-1.71.55-3.3,1.33-4.73,2.31-1.43.98-2.72,2.16-3.84,3.51-1.12,1.34-2.07,2.83-2.84,4.41-.77,1.58-1.37,3.28-1.77,5.03-.4,1.75-.6,3.57-.6,5.39,0,2.04.28,3.92.84,5.57.57,1.7,1.46,3.18,2.63,4.38,1.17,1.2,2.65,2.13,4.4,2.76,1.7.61,3.69.92,5.92.92,1.87,0,3.67-.3,5.33-.89,1.64-.58,3.17-1.39,4.57-2.41,1.38-1.01,2.64-2.22,3.73-3.59,1.08-1.36,2.01-2.84,2.76-4.42.75-1.57,1.33-3.23,1.73-4.93.4-1.71.6-3.44.6-5.15,0-1.96-.28-3.79-.82-5.45-.56-1.69-1.41-3.17-2.53-4.4ZM408.21,162.55c0,1.16-.12,2.36-.36,3.56-.24,1.19-.59,2.36-1.06,3.46-.46,1.1-1.03,2.14-1.7,3.09-.65.93-1.39,1.76-2.21,2.45-.79.67-1.69,1.21-2.66,1.6-1.79.72-3.96.81-5.7,0-.83-.39-1.56-.93-2.18-1.63-.63-.71-1.14-1.56-1.52-2.53-.37-.97-.56-2.02-.56-3.14,0-2.17.3-4.21.89-6.05.59-1.83,1.4-3.42,2.43-4.74,1-1.29,2.2-2.32,3.57-3.04,1.34-.71,2.81-1.07,4.38-1.07,1.17,0,2.17.21,2.98.62.83.42,1.49.96,2.03,1.66.55.71.96,1.57,1.23,2.54.28,1.02.43,2.11.43,3.22Z"/>
    <path class="st0" d="M440.42,148.33c-1.26,0-2.46.1-3.57.3-1.1.2-2.16.46-3.14.79-.98.33-1.93.73-2.81,1.19-.15.08-.31.16-.46.24.01-.25.03-.5.04-.74l.06-1.28h-6.9l-.1,1.12c-.04.46-.1,1.08-.17,1.84-.08.75-.17,1.48-.28,2.17l-5.03,29.01h7.13l4.47-25.9c.59-.31,1.18-.6,1.77-.87.76-.34,1.54-.64,2.34-.89.78-.24,1.63-.43,2.51-.56.89-.13,1.86-.19,2.89-.19.52,0,1,.08,1.43.24.4.15.75.36,1.04.65.3.29.53.66.71,1.12.19.47.28,1.05.28,1.73,0,.22-.01.44-.04.68-.03.27-.06.55-.09.78l-4,23.21h7.13l4.02-23.15c.09-.45.15-.91.18-1.36.03-.43.05-.85.05-1.25,0-2.74-.82-4.93-2.44-6.51-1.61-1.58-3.97-2.37-7.01-2.37Z"/>
    <polygon class="st0" points="472.62 134.16 468.22 128.38 455.65 140.23 458.57 143.73 472.62 134.16"/>
    <polygon class="st0" points="452.52 182.97 459.64 182.97 465.56 148.83 458.43 148.83 452.52 182.97"/>
    <path class="st0" d="M498.97,149.53c-.49-.15-1.14-.3-2-.45-.81-.14-1.66-.27-2.54-.38-.88-.11-1.72-.2-2.54-.27-.85-.07-1.51-.11-2.01-.11-3.75,0-7.04.6-9.77,1.79-2.74,1.19-5.04,2.8-6.82,4.8-1.78,1.99-3.11,4.31-3.96,6.9-.84,2.56-1.26,5.27-1.26,8.07,0,2.23.32,4.21.94,5.87.63,1.68,1.48,3.11,2.54,4.25,1.07,1.16,2.33,2.03,3.76,2.61,1.4.57,2.89.85,4.43.85,1.09,0,2.17-.11,3.22-.32,1.08-.22,2.12-.6,3.1-1.12.89-.48,1.74-1.11,2.52-1.86,0,.18,0,.36.01.54,0,.37.03.74.05,1.11l.06,1.16h7.21l-.26-1.44c-.05-.3-.1-.63-.13-.98-.03-.34-.05-.75-.05-1.24,0-.65.02-1.38.07-2.17.05-.8.11-1.64.2-2.48.09-.84.19-1.68.3-2.51.12-.83.23-1.59.34-2.27l3.62-20.02-1.03-.33ZM483.75,176.49c-.93.43-1.89.65-2.95.65-.72,0-1.37-.18-1.98-.55-.65-.39-1.2-.91-1.67-1.6-.49-.72-.88-1.58-1.15-2.57-.28-1.01-.42-2.15-.42-3.38,0-2.55.38-4.79,1.13-6.66.75-1.87,1.73-3.44,2.91-4.67,1.18-1.22,2.52-2.15,3.99-2.75,1.48-.61,2.97-.92,4.45-.92,1.05,0,1.97.1,2.72.29.42.11.82.23,1.18.36l-2.56,14.08c-.19,1.14-.56,2.23-1.09,3.24-.54,1.02-1.2,1.92-1.96,2.68-.76.75-1.62,1.35-2.58,1.8Z"/>
  </g>
  <g>
    <path class="st0" d="M228.75,149.99c-1.87-1.43-4.5-2.16-7.82-2.16-2.7,0-5.2.62-7.44,1.84-2.2,1.2-4.11,2.83-5.68,4.84-1.55,1.99-2.76,4.31-3.61,6.9-.85,2.58-1.28,5.31-1.28,8.13,0,1.82.26,3.57.78,5.2.53,1.67,1.33,3.14,2.38,4.35,1.07,1.23,2.42,2.2,4.01,2.88,1.57.67,3.41,1.01,5.47,1.01,2.78,0,5.33-.38,7.59-1.12,2.26-.74,4.33-1.83,6.13-3.22l.88-.68-3.28-5.32-1.06.72c-.62.42-1.33.84-2.1,1.25-.75.4-1.57.76-2.42,1.06-.85.3-1.75.55-2.67.73-.9.18-1.84.27-2.77.27-.99,0-1.84-.18-2.52-.53-.68-.35-1.22-.84-1.67-1.5-.47-.7-.82-1.58-1.05-2.61-.24-1.09-.37-2.29-.37-3.56v-.29s0-.09,0-.14c1.29-.03,2.61-.09,3.94-.17,1.73-.11,3.43-.31,5.04-.59,1.64-.28,3.21-.68,4.65-1.18,1.5-.52,2.83-1.2,3.96-2.03,1.17-.86,2.12-1.93,2.81-3.16.71-1.27,1.07-2.77,1.07-4.46,0-2.78-1-4.95-2.98-6.46ZM211.21,162.69c.21-.73.48-1.47.8-2.2.53-1.21,1.21-2.33,2.04-3.31.81-.96,1.77-1.75,2.84-2.35,1.02-.57,2.2-.86,3.51-.86,1.47,0,2.57.27,3.27.81.39.3.9.85.9,2.16,0,.75-.16,1.37-.5,1.89-.36.57-.87,1.06-1.51,1.47-.71.45-1.55.83-2.51,1.13-1.01.32-2.09.57-3.22.75-1.14.19-2.35.32-3.57.4-.69.04-1.38.08-2.05.1Z"/>
    <path class="st0" d="M262.29,150.2c-1.61-1.58-3.97-2.37-7.01-2.37-1.26,0-2.46.1-3.57.3-1.1.2-2.16.46-3.14.79-.98.33-1.93.73-2.81,1.19-.15.08-.31.16-.46.24.01-.25.03-.5.04-.74l.06-1.28h-6.9l-.1,1.12c-.04.46-.1,1.08-.17,1.84-.08.75-.17,1.48-.28,2.17l-5.03,29.01h7.13l4.47-25.9c.59-.31,1.18-.6,1.77-.87.76-.34,1.54-.64,2.34-.89.78-.24,1.63-.43,2.51-.56.89-.13,1.86-.19,2.89-.19.52,0,1,.08,1.43.24.4.15.75.36,1.04.65.3.29.53.66.71,1.12.19.47.28,1.05.28,1.73,0,.22-.01.44-.04.68-.03.27-.06.55-.09.78l-4,23.21h7.13l4.02-23.15c.09-.45.15-.91.18-1.36.03-.43.05-.85.05-1.25,0-2.74-.82-4.93-2.44-6.51Z"/>
  </g>
</svg>